<svg width="58" height="56" viewBox="0 0 58 56" fill="none" xmlns="http://www.w3.org/2000/svg">
<path d="M23.821 13.3344H33.0784L23.4682 41.6668C23.4191 41.8115 23.3476 41.9477 23.2562 42.0705C23.1651 42.1934 23.0552 42.3011 22.9305 42.3902C22.8057 42.4793 22.6681 42.5485 22.5218 42.5952C22.3755 42.6418 22.223 42.6659 22.0697 42.6659H14.8651C14.6312 42.6659 14.4005 42.6107 14.1924 42.5041C13.9841 42.3979 13.8043 42.2438 13.668 42.0546C13.5315 41.8654 13.4422 41.6466 13.4075 41.4164C13.3727 41.1861 13.3938 40.9508 13.4685 40.7303L22.4221 14.3328C22.4709 14.1881 22.5425 14.052 22.634 13.9291C22.7251 13.8062 22.8354 13.6985 22.9598 13.6094C23.0846 13.5203 23.2222 13.4511 23.3685 13.4044C23.5148 13.3578 23.6673 13.3337 23.8206 13.3337V13.334L23.821 13.3344Z" fill="url(#paint0_linear_1_5890)"/>
<path d="M40.8864 42.666H32.5739C32.4812 42.666 32.3885 42.6574 32.297 42.6399C32.2059 42.6228 32.1163 42.5971 32.0299 42.5633C31.9435 42.5294 31.8605 42.4874 31.7819 42.4384C31.7034 42.3891 31.6297 42.3326 31.5618 42.2697L22.1287 33.509C22.029 33.4163 21.9595 33.296 21.9293 33.1636C21.8991 33.0312 21.9097 32.8929 21.9597 32.7665C22.0098 32.6402 22.0969 32.5318 22.2097 32.4554C22.3227 32.3792 22.4561 32.3383 22.5926 32.3383H37.2724L40.8857 42.6663L40.8864 42.666Z" fill="#0078D4"/>
<path d="M33.1116 13.3344L26.6313 32.3403L37.2196 32.338L40.8516 42.666H32.5704C32.4847 42.6652 32.3991 42.6574 32.3146 42.6423C32.2301 42.6271 32.1472 42.6049 32.0667 42.5754C31.9051 42.5168 31.7548 42.4312 31.6224 42.3222L25.2547 36.4122L23.4721 41.64C23.426 41.7707 23.3626 41.8948 23.2836 42.0087C23.1253 42.238 22.9087 42.4214 22.6559 42.5404C22.5301 42.5996 22.3968 42.6418 22.2598 42.666H14.8694C14.6332 42.6668 14.4001 42.6108 14.1901 42.5026C13.98 42.3946 13.7992 42.2379 13.6629 42.0457C13.5267 41.8535 13.4389 41.6315 13.4071 41.3985C13.3754 41.1654 13.4005 40.9281 13.4802 40.7066L22.4193 14.3526C22.4659 14.2052 22.5359 14.0664 22.6266 13.9411C22.7169 13.8159 22.8272 13.7055 22.9524 13.6145C23.0775 13.5235 23.2167 13.4527 23.3642 13.4052C23.5116 13.3578 23.6661 13.3337 23.8214 13.3344H33.112H33.1116Z" fill="url(#paint1_linear_1_5890)"/>
<path d="M44.5986 40.7304C44.6734 40.951 44.6944 41.1861 44.66 41.4164C44.6253 41.6466 44.5362 41.8653 44.4 42.0546C44.2636 42.2437 44.0838 42.3978 43.8757 42.5041C43.6675 42.6104 43.4369 42.6659 43.2028 42.666H32.8852C33.119 42.666 33.3498 42.6104 33.5582 42.5042C33.7663 42.398 33.9462 42.2436 34.0827 42.0546C34.2192 41.8656 34.3083 41.6466 34.3432 41.4164C34.378 41.1862 34.3568 40.9509 34.2821 40.7304L25.3282 14.332C25.2296 14.0412 25.0418 13.7885 24.7912 13.6094C24.6669 13.5203 24.5292 13.4515 24.3833 13.4048C24.2374 13.3582 24.0849 13.3344 23.932 13.3344H34.2493C34.4026 13.3344 34.5547 13.3582 34.701 13.4048C34.8469 13.4515 34.9845 13.5207 35.1093 13.6094C35.2337 13.6985 35.3436 13.8062 35.4347 13.9287C35.5258 14.0512 35.597 14.1873 35.6463 14.332L44.6002 40.7304H44.5986Z" fill="url(#paint2_linear_1_5890)"/>
<defs>
<linearGradient id="paint0_linear_1_5890" x1="27.1996" y1="15.5085" x2="17.6746" y2="43.8031" gradientUnits="userSpaceOnUse">
<stop stop-color="#114A8B"/>
<stop offset="1" stop-color="#0669BC"/>
</linearGradient>
<linearGradient id="paint1_linear_1_5890" x1="30.1992" y1="28.6771" x2="27.9765" y2="29.4353" gradientUnits="userSpaceOnUse">
<stop stop-opacity="0.3"/>
<stop offset="0.1" stop-opacity="0.2"/>
<stop offset="0.3" stop-opacity="0.1"/>
<stop offset="0.6" stop-opacity="0.1"/>
<stop offset="1" stop-opacity="0"/>
</linearGradient>
<linearGradient id="paint2_linear_1_5890" x1="28.9712" y1="14.684" x2="39.4278" y2="42.6969" gradientUnits="userSpaceOnUse">
<stop stop-color="#3CCBF4"/>
<stop offset="1" stop-color="#2892DF"/>
</linearGradient>
</defs>
</svg>
