<svg width="58" height="56" viewBox="0 0 58 56" fill="none" xmlns="http://www.w3.org/2000/svg">
<path d="M13.4526 39.544C13.4526 41.7597 15.2587 43.5556 17.4865 43.5556H40.7034C42.9316 43.5556 44.7375 41.7595 44.7375 39.544V16.4561C44.7375 14.2403 42.9314 12.4444 40.7036 12.4444H17.4866C15.2584 12.4444 13.4526 14.2405 13.4526 16.456V39.5439V39.544Z" fill="#563D7C"/>
<path d="M26.4258 26.206V21.8003H30.3255C30.6971 21.8003 31.0551 21.831 31.4 21.8926C31.7449 21.9541 32.05 22.064 32.3153 22.2223C32.5805 22.3807 32.7928 22.6005 32.952 22.8819C33.1111 23.1633 33.1908 23.5239 33.1908 23.9635C33.1908 24.755 32.952 25.3266 32.4744 25.6783C31.997 26.0302 31.3868 26.206 30.6439 26.206H26.4258ZM22.2606 18.5816V37.4184H31.4398C32.2888 37.4184 33.1157 37.3129 33.9204 37.1018C34.7251 36.8907 35.4414 36.5654 36.0693 36.1257C36.6971 35.686 37.1968 35.1187 37.5681 34.4241C37.9397 33.7293 38.1253 32.907 38.1253 31.9573C38.1253 30.7789 37.8379 29.772 37.2631 28.9366C36.6883 28.1011 35.8172 27.5163 34.6498 27.1821C35.4988 26.7777 36.14 26.2587 36.5734 25.6256C37.0066 24.9924 37.2233 24.201 37.2233 23.2512C37.2233 22.3718 37.0774 21.6332 36.7855 21.0351C36.4937 20.4372 36.0825 19.9579 35.5519 19.5973C35.0214 19.2368 34.3847 18.9773 33.6418 18.8191C32.899 18.6607 32.0765 18.5816 31.1745 18.5816H22.2606ZM26.4258 34.1997V29.0289H30.9622C31.8643 29.0289 32.5894 29.2354 33.1378 29.6489C33.686 30.0622 33.9602 30.7525 33.9602 31.7198C33.9602 32.2124 33.8762 32.6168 33.7081 32.9334C33.5401 33.25 33.3146 33.5007 33.0316 33.6853C32.7487 33.87 32.4214 34.0019 32.05 34.0811C31.6785 34.1601 31.2895 34.1997 30.8827 34.1997H26.4258Z" fill="white"/>
</svg>
