<svg width="56" height="56" viewBox="0 0 56 56" fill="none" xmlns="http://www.w3.org/2000/svg">
<path d="M28 12.4445C19.4084 12.4445 12.4444 19.4084 12.4444 28C12.4444 36.5917 19.4084 43.5556 28 43.5556C36.5916 43.5556 43.5556 36.5917 43.5556 28C43.5556 19.4084 36.5916 12.4445 28 12.4445ZM15.787 28.1618L27.8382 40.213C21.2203 40.1271 15.8729 34.7797 15.787 28.1618ZM30.734 39.9081L16.0919 25.266C17.3339 19.8365 22.1934 15.7845 28 15.7845C32.0581 15.7845 35.6546 17.7645 37.8759 20.8109L36.1847 22.3029C34.3828 19.7195 31.3886 18.0283 28 18.0283C23.6855 18.0283 20.0107 20.7685 18.6219 24.6039L31.3961 37.3769C34.4985 36.2532 36.8841 33.6349 37.683 30.3918H32.3892V28H40.2167C40.2155 33.8066 36.1636 38.6661 30.734 39.9081Z" fill="#744C9E"/>
</svg>
