<svg width="56" height="56" viewBox="0 0 56 56" fill="none" xmlns="http://www.w3.org/2000/svg">
<path fill-rule="evenodd" clip-rule="evenodd" d="M30.6545 16.0065L37.0431 19.6952C37.2276 19.5 37.4392 19.3325 37.6715 19.1979C38.9964 18.4361 40.6864 18.8884 41.456 20.2134C42.2177 21.5384 41.7655 23.2283 40.4405 23.9979C40.2099 24.1307 39.9614 24.2296 39.7026 24.2917V31.6717C39.9586 31.7339 40.2044 31.8322 40.4326 31.9636C41.7655 32.7332 42.2177 34.4232 41.4481 35.7482C40.6864 37.0731 38.9886 37.5253 37.6636 36.7637C37.4069 36.6165 37.1756 36.4287 36.9788 36.2078L30.629 39.8738C30.722 40.1553 30.7693 40.45 30.7689 40.7465C30.7689 42.2698 29.5313 43.5156 28 43.5156C26.4687 43.5156 25.2311 42.2777 25.2311 40.7465C25.2311 40.4743 25.2702 40.2114 25.3431 39.9631L18.9562 36.2755C18.7738 36.4668 18.5651 36.6312 18.3364 36.7637C17.0035 37.5253 15.3136 37.0731 14.5518 35.7482C13.7902 34.4232 14.2425 32.7332 15.5674 31.9636C15.7956 31.8321 16.0414 31.7338 16.2973 31.6716V24.2917C16.0386 24.2296 15.7901 24.1307 15.5595 23.9979C14.2345 23.2363 13.7822 21.5384 14.544 20.2134C15.3057 18.8884 17.0034 18.4361 18.3284 19.1979C18.5595 19.3318 18.7701 19.4982 18.9538 19.692L25.3443 16.0024C25.2689 15.7467 25.2308 15.4815 25.2311 15.215C25.2311 13.6839 26.4687 12.446 28 12.446C29.5313 12.446 30.7689 13.6837 30.7689 15.215C30.7689 15.4902 30.729 15.7558 30.6545 16.0065ZM29.989 17.143L36.3928 20.8403C36.2908 21.1968 36.2616 21.5701 36.3068 21.9381C36.352 22.306 36.4708 22.6612 36.656 22.9823C37.0458 23.6604 37.6808 24.11 38.3856 24.2852V31.6744C38.3497 31.6832 38.3139 31.6928 38.2784 31.7029L29.9145 17.217C29.9398 17.1928 29.9647 17.1682 29.989 17.1431V17.143ZM26.0872 17.2186L17.7234 31.7044C17.6873 31.6939 17.6509 31.6842 17.6144 31.6752V24.2852C18.3191 24.11 18.9542 23.6604 19.344 22.9823C19.5296 22.6606 19.6485 22.3047 19.6935 21.936C19.7385 21.5672 19.7088 21.1932 19.6061 20.8362L26.0081 17.14C26.0339 17.1667 26.0603 17.1929 26.0872 17.2185V17.2186ZM28.7737 17.8748L37.1355 32.3573C36.9439 32.5401 36.7798 32.7495 36.648 32.9791C36.5166 33.2074 36.4183 33.4532 36.3562 33.7091H19.644C19.5818 33.4531 19.4835 33.2074 19.352 32.9791C19.2198 32.7511 19.0559 32.5429 18.8653 32.3609L27.2287 17.8754C27.4794 17.9476 27.7391 17.9841 28 17.9839C28.2686 17.9839 28.5282 17.9459 28.7737 17.8748ZM30.0477 38.8811L36.4099 35.2078C36.3909 35.1478 36.3738 35.0872 36.3589 35.0261H19.6405C19.6316 35.0621 19.622 35.0977 19.6117 35.1333L26.0051 38.8246C26.2633 38.5562 26.5731 38.3427 26.9159 38.1971C27.2588 38.0516 27.6275 37.9769 28 37.9776C28.3855 37.9769 28.7668 38.057 29.1195 38.2126C29.4722 38.3682 29.7884 38.5959 30.0477 38.8811Z" fill="#E535AB"/>
</svg>
