<svg width="57" height="56" viewBox="0 0 57 56" fill="none" xmlns="http://www.w3.org/2000/svg">
<path d="M28.6228 12.5294L29.4577 14.0887C29.6454 14.3765 29.8487 14.6312 30.0882 14.8684C30.7904 15.558 31.4449 16.294 32.0473 17.0713C33.4619 18.9184 34.416 20.9696 35.0974 23.1881C35.506 24.5432 35.7279 25.9334 35.7445 27.3391C35.813 31.5418 34.3642 35.1504 31.4432 38.1495C30.968 38.625 30.4547 39.0614 29.9083 39.4541C29.619 39.4541 29.4821 39.2334 29.3629 39.0302C29.1457 38.6535 29.0011 38.2397 28.9366 37.8102C28.834 37.3017 28.7665 36.7933 28.7998 36.2683V36.0311C28.7763 35.9806 28.5212 12.649 28.6228 12.5294Z" fill="#599636"/>
<path d="M28.6228 12.4779C28.5886 12.4098 28.5544 12.4614 28.5202 12.4944C28.5368 12.8347 28.4176 13.138 28.2308 13.4277C28.0255 13.7154 27.7538 13.9361 27.481 14.1733C25.9658 15.4779 24.7731 17.0538 23.818 18.8163C22.5472 21.1884 21.8922 23.7305 21.7064 26.4069C21.6214 27.3722 22.0134 30.7786 22.3194 31.7615C23.1542 34.3707 24.6539 36.5571 26.5963 38.4547C27.0734 38.9116 27.5837 39.3355 28.1116 39.7428C28.265 39.7428 28.2817 39.6067 28.3169 39.5056C28.3842 39.2893 28.4354 39.0683 28.4703 38.8446L28.8125 36.3034L28.6228 12.4779Z" fill="#6CAC48"/>
<path d="M29.4577 40.4865C29.4919 40.0976 29.6796 39.7749 29.8839 39.4531C29.6786 39.3685 29.5261 39.2003 29.4069 39.0127C29.304 38.8351 29.2189 38.6479 29.1527 38.4537C28.9142 37.7421 28.8633 36.9955 28.7949 36.2684V35.828C28.7099 35.896 28.6923 36.4715 28.6923 36.5571C28.6425 37.3256 28.54 38.0899 28.3853 38.8445C28.3345 39.1498 28.3002 39.4541 28.1116 39.7253C28.1116 39.7593 28.1116 39.7934 28.1282 39.8439C28.4352 40.7422 28.5192 41.657 28.571 42.5892V42.9295C28.571 43.3359 28.5544 43.2503 28.8936 43.3864C29.0305 43.437 29.183 43.4545 29.3199 43.5556C29.4225 43.5556 29.4391 43.471 29.4391 43.4029L29.3883 42.8439V41.2846C29.3717 41.0124 29.4225 40.7422 29.4567 40.4875L29.4577 40.4865Z" fill="#C2BFBF"/>
</svg>
