<svg width="56" height="56" viewBox="0 0 56 56" fill="none" xmlns="http://www.w3.org/2000/svg">
<path d="M19.7853 23.5323H25.6532V23.9964H20.3232V27.4897H25.3353V27.9539H20.3232V31.7892H25.7143V32.2533H19.7853V23.5323ZM26.1788 23.5323H26.8023L29.5651 27.3676L32.389 23.5323L36.2299 18.6606L29.9196 27.7706L33.1713 32.2533H32.5234L29.5651 28.1737L26.5945 32.2533H25.9588L29.235 27.7706L26.1788 23.5323ZM33.4036 23.9964V23.5323H40.0905V23.9964H37.0099V32.2533H36.472V23.9964H33.4036Z" fill="black"/>
<path d="M12.4445 23.5323H13.1168L22.3882 37.3394L18.5568 32.2533L13.0068 24.1919L12.9823 32.2533H12.4445V23.5323Z" fill="black"/>
<path d="M40.0364 31.6491C40.1476 31.6491 40.2287 31.5644 40.2287 31.4548C40.2287 31.3453 40.1476 31.2606 40.0364 31.2606C39.9265 31.2606 39.8441 31.3453 39.8441 31.4548C39.8441 31.5644 39.9265 31.6491 40.0364 31.6491ZM40.5649 31.1381C40.5649 31.4614 40.7991 31.6726 41.1405 31.6726C41.5042 31.6726 41.724 31.4548 41.724 31.0768V29.7457H41.431V31.0755C41.431 31.2854 41.325 31.3975 41.1379 31.3975C40.9705 31.3975 40.8566 31.2932 40.8527 31.1381H40.5649ZM42.1073 31.1211C42.1283 31.4575 42.4096 31.6726 42.8282 31.6726C43.2756 31.6726 43.5556 31.447 43.5556 31.0872C43.5556 30.8043 43.396 30.6479 43.0087 30.5579L42.8007 30.5071C42.5548 30.4497 42.4553 30.3728 42.4553 30.2385C42.4553 30.069 42.6097 29.9582 42.8413 29.9582C43.0611 29.9582 43.2128 30.0664 43.2403 30.2398H43.5255C43.5085 29.923 43.2285 29.7001 42.8452 29.7001C42.4331 29.7001 42.1584 29.923 42.1584 30.2581C42.1584 30.5345 42.3141 30.6987 42.6555 30.7782L42.8988 30.8369C43.1487 30.8956 43.2586 30.9816 43.2586 31.125C43.2586 31.2919 43.0859 31.4131 42.8504 31.4131C42.5979 31.4131 42.4226 31.2997 42.3978 31.1211H42.1073Z" fill="black"/>
</svg>
