<svg width="56" height="56" viewBox="0 0 56 56" fill="none" xmlns="http://www.w3.org/2000/svg">
<path fill-rule="evenodd" clip-rule="evenodd" d="M28.0014 43.5556V37.5264C34.3832 37.5264 39.3371 31.1976 36.8863 24.4807C36.4362 23.2467 35.7218 22.1261 34.7931 21.1972C33.8644 20.2684 32.7438 19.5539 31.5099 19.1036C24.793 16.671 18.4642 21.6068 18.4642 27.9886H12.4525C12.4525 17.8174 22.2898 9.88415 32.9553 13.2155C37.6096 14.6796 41.3291 18.3809 42.7751 23.0359C46.107 33.7182 38.1913 43.5556 28.0014 43.5556Z" fill="#0080FF"/>
<path fill-rule="evenodd" clip-rule="evenodd" d="M22.0252 37.5439H28.0189V31.5502H22.0259L22.0252 37.5439ZM17.4064 42.1627H22.0246V37.5445H17.4064V42.1627ZM13.5453 37.5445H17.4064V33.6827H13.5453V37.5445Z" fill="#0080FF"/>
</svg>
