<svg width="58" height="56" viewBox="0 0 58 56" fill="none" xmlns="http://www.w3.org/2000/svg">
<path d="M44.0227 31.0807C43.8408 30.5314 43.3644 30.1488 42.7482 30.0569C42.4577 30.0137 42.1249 30.0321 41.7312 30.1131C41.0449 30.2543 40.5357 30.308 40.1641 30.3184C41.5667 27.957 42.7072 25.2642 43.3638 22.7293C44.4255 18.6305 43.8581 16.7632 43.1952 15.9186C41.4407 13.683 38.8809 12.4821 35.7928 12.4453C34.1454 12.4252 32.6992 12.7496 31.9447 12.9828C31.2423 12.8592 30.4871 12.7902 29.6946 12.7775C28.2091 12.7538 26.8965 13.0768 25.775 13.7405C25.1541 13.5311 24.1576 13.2359 23.0068 13.0476C20.3002 12.6045 18.1188 12.9498 16.5232 14.0738C14.5911 15.4348 13.6954 17.7994 13.861 21.1019C13.9137 22.1504 14.5018 25.3407 15.428 28.3663C15.9602 30.1054 16.5278 31.5495 17.1149 32.659C17.9476 34.2323 18.8385 35.1588 19.8387 35.4916C20.3993 35.6778 21.4178 35.8082 22.4891 34.9185C22.6249 35.0825 22.8061 35.2454 23.0465 35.3968C23.3519 35.5888 23.7252 35.7457 24.0981 35.8387C25.4419 36.1737 26.7007 36.0899 27.7746 35.6203C27.7812 35.8108 27.7863 35.9928 27.7906 36.1499C27.7977 36.4048 27.8048 36.6547 27.8141 36.8884C27.8778 38.4687 27.9856 39.6974 28.305 40.5571C28.3226 40.6044 28.3462 40.6765 28.371 40.7529C28.5304 41.2395 28.7969 42.0541 29.4749 42.692C30.177 43.3529 31.0262 43.5556 31.804 43.5556C32.194 43.5556 32.5662 43.5045 32.8927 43.4348C34.0563 43.1861 35.3778 42.8073 36.3338 41.4498C37.2376 40.1666 37.677 38.2339 37.7565 35.1886C37.7668 35.1025 37.7763 35.0202 37.7854 34.9419L37.8044 34.7809L38.0173 34.7996L38.0722 34.8033C39.2573 34.8572 40.7065 34.6065 41.5965 34.1943C42.2997 33.8689 44.5533 32.6824 44.0227 31.0807Z" fill="black"/>
<path d="M41.9963 31.3922C38.4723 32.1171 38.23 30.9273 38.23 30.9273C41.9507 25.4219 43.5061 18.4336 42.1639 16.7233C38.5021 12.0578 32.1634 14.2643 32.0576 14.3215L32.0236 14.3276C31.3273 14.1835 30.5482 14.0977 29.6724 14.0834C28.078 14.0574 26.8685 14.5002 25.9506 15.1943C25.9506 15.1943 14.643 10.549 15.169 21.0366C15.2808 23.2677 18.3758 37.9183 22.0673 33.4932C23.4166 31.875 24.7203 30.5068 24.7203 30.5068C25.3678 30.9357 26.1429 31.1545 26.9555 31.076L27.0187 31.0226C26.999 31.2234 27.008 31.4199 27.0439 31.6526C26.0929 32.7121 26.3725 32.8981 24.4714 33.2884C22.5477 33.6837 23.6777 34.3875 24.4156 34.5716C25.3101 34.7946 27.3794 35.1105 28.7776 33.1586L28.7219 33.3814C29.0944 33.679 29.3561 35.3172 29.3122 36.8023C29.2684 38.2873 29.2391 39.3069 29.5326 40.1033C29.8264 40.8997 30.1189 42.6916 32.6181 42.1577C34.7063 41.7114 35.7885 40.5549 35.9391 38.6259C36.0459 37.2545 36.2877 37.4573 36.3029 36.2311L36.4969 35.6507C36.7204 33.7917 36.5324 33.192 37.8189 33.4709L38.1317 33.4984C39.0784 33.5412 40.3179 33.3464 41.0453 33.0093C42.6115 32.2845 43.5405 31.0742 41.996 31.3922H41.9963Z" fill="#336791"/>
<path d="M26.6125 22.0343C26.295 21.9902 26.0074 22.031 25.8619 22.1409C25.7801 22.2027 25.7548 22.2743 25.7479 22.3236C25.7297 22.4541 25.8214 22.5985 25.8778 22.673C26.0373 22.8838 26.2702 23.0286 26.5008 23.0605C26.5342 23.0652 26.5675 23.0674 26.6006 23.0674C26.9851 23.0674 27.3347 22.7688 27.3656 22.5484C27.4041 22.2724 27.0023 22.0884 26.6125 22.0344V22.0343ZM37.1327 22.0431C37.1024 21.8267 36.7163 21.765 36.3499 21.8158C35.984 21.8667 35.6293 22.0314 35.6589 22.2482C35.6826 22.4168 35.988 22.7046 36.3494 22.7046C36.3799 22.7046 36.4107 22.7026 36.4418 22.6982C36.683 22.6649 36.8601 22.5121 36.9442 22.4241C37.0722 22.2899 37.1463 22.1403 37.1327 22.0431Z" fill="white"/>
<path d="M43.1689 31.3098C43.0346 30.9047 42.6021 30.7743 41.8835 30.9223C39.7501 31.3613 38.9861 31.0572 38.7352 30.873C40.3935 28.3538 41.7577 25.3086 42.4936 22.4675C42.8422 21.1216 43.0348 19.8718 43.0506 18.853C43.068 17.7348 42.877 16.9132 42.4831 16.4112C40.8951 14.3877 38.5643 13.3023 35.743 13.2726C33.8035 13.2508 32.1647 13.7458 31.847 13.885C31.178 13.7191 30.4487 13.6172 29.6547 13.6042C28.1987 13.5807 26.9401 13.9283 25.898 14.6369C25.4454 14.4689 24.2757 14.0685 22.8451 13.8387C20.3719 13.4416 18.4066 13.7425 17.0042 14.7332C15.3307 15.9155 14.5581 18.0289 14.7078 21.0146C14.7582 22.0191 15.3321 25.1092 16.2379 28.0685C17.4301 31.9635 18.7262 34.1684 20.0898 34.6221C20.2494 34.6751 20.4334 34.7122 20.6364 34.7122C21.1338 34.7122 21.7437 34.4887 22.3782 33.728C23.1522 32.8021 23.9528 31.8988 24.779 31.019C25.3151 31.3059 25.904 31.4661 26.5063 31.4822C26.5074 31.4979 26.509 31.5136 26.5104 31.5292C26.4067 31.6525 26.3052 31.7776 26.2059 31.9044C25.7886 32.4327 25.7017 32.5427 24.3584 32.8185C23.9762 32.8972 22.9613 33.1057 22.9464 33.8152C22.9303 34.5903 24.1461 34.9158 24.2847 34.9503C24.7674 35.0708 25.2325 35.1303 25.676 35.1303C26.7546 35.1303 27.7039 34.7767 28.4624 34.0927C28.4391 36.856 28.5546 39.5788 28.8874 40.4084C29.1599 41.0876 29.8256 42.7474 31.9283 42.7473C32.2369 42.7473 32.5765 42.7115 32.9501 42.6316C35.1447 42.1625 36.0977 41.1953 36.4663 39.0628C36.6636 37.9232 37.0021 35.2019 37.1614 33.7421C37.4974 33.8467 37.9301 33.8946 38.3977 33.8944C39.3732 33.8944 40.4987 33.6878 41.2046 33.3611C41.9975 32.9938 43.4284 32.0927 43.1689 31.3098ZM37.9427 21.4459C37.9355 21.8768 37.876 22.268 37.813 22.6764C37.7451 23.1156 37.6749 23.5697 37.6573 24.1209C37.6399 24.6573 37.7071 25.215 37.772 25.7544C37.9033 26.8439 38.038 27.9654 37.5165 29.0721C37.4299 28.9191 37.3527 28.7609 37.2855 28.5984C37.2206 28.4417 37.0799 28.1901 36.885 27.8417C36.1267 26.4857 34.3511 23.3103 35.2601 22.0146C35.5308 21.6289 36.218 21.2324 37.9427 21.4459ZM35.8521 14.1452C38.38 14.2008 40.3796 15.1438 41.7954 16.9479C42.8812 18.3317 41.6855 24.628 38.224 30.0599C38.1892 30.0158 38.1542 29.9718 38.119 29.9279L38.0752 29.8734C38.9697 28.4003 38.7948 26.9428 38.6391 25.6506C38.5751 25.1203 38.5147 24.6194 38.5301 24.1489C38.546 23.6503 38.6121 23.2225 38.6761 22.809C38.7546 22.2993 38.8346 21.772 38.8126 21.1504C38.829 21.0851 38.8357 21.0081 38.827 20.9166C38.7708 20.3205 38.0882 18.5364 36.6971 16.9217C35.9362 16.0384 34.8265 15.05 33.3114 14.3834C33.9631 14.2487 34.8542 14.1231 35.8521 14.1452ZM21.7068 33.1712C21.0077 34.0094 20.5249 33.8487 20.3661 33.796C19.3317 33.4519 18.1314 31.2717 17.0731 27.8143C16.1574 24.8228 15.6223 21.8145 15.5799 20.971C15.4462 18.3032 16.0947 16.444 17.5075 15.4448C19.8067 13.8189 23.5869 14.7921 25.1058 15.2856C25.084 15.3071 25.0613 15.3272 25.0397 15.3491C22.5471 17.8593 22.6062 22.148 22.6124 22.4102C22.6121 22.5113 22.6207 22.6545 22.6323 22.8515C22.6752 23.5729 22.755 24.9154 22.5418 26.4357C22.3436 27.8486 22.7804 29.2314 23.7398 30.2297C23.8383 30.332 23.9418 30.4293 24.0499 30.5213C23.6229 30.9774 22.6947 31.986 21.7068 33.1712ZM24.3703 29.6272C23.5971 28.8226 23.2458 27.7034 23.4066 26.5563C23.6318 24.9502 23.5487 23.5515 23.504 22.8C23.4978 22.6948 23.4922 22.6027 23.489 22.53C23.8531 22.208 25.5406 21.3064 26.744 21.5814C27.293 21.7068 27.6277 22.0797 27.7668 22.7211C28.4867 26.0417 27.862 27.4257 27.3601 28.5379C27.2567 28.767 27.1589 28.9836 27.0755 29.2076L27.0108 29.3809C26.847 29.8188 26.6947 30.2259 26.6002 30.6126C25.7781 30.6102 24.9784 30.26 24.3703 29.6271V29.6272ZM24.4965 34.1055C24.2565 34.0457 24.0406 33.9418 23.9139 33.8557C24.0197 33.8061 24.208 33.7385 24.5346 33.6714C26.1149 33.347 26.359 33.118 26.892 32.4432C27.0141 32.2884 27.1526 32.1131 27.3445 31.8994L27.3447 31.8992C27.6304 31.5802 27.7611 31.6343 27.9981 31.7324C28.1901 31.8115 28.3772 32.0516 28.4531 32.3158C28.489 32.4406 28.5293 32.6774 28.3974 32.8617C27.284 34.4162 25.6617 34.3963 24.4965 34.1055ZM32.7671 41.7802C30.8338 42.1932 30.1493 41.2096 29.6982 40.085C29.4071 39.3591 29.2639 36.0853 29.3655 32.47C29.3668 32.4219 29.3599 32.3755 29.3466 32.3318C29.3348 32.2454 29.3167 32.1601 29.2926 32.0763C29.1416 31.5503 28.7737 31.1103 28.3323 30.9278C28.157 30.8554 27.8351 30.7225 27.4484 30.8211C27.5309 30.4822 27.6739 30.0995 27.829 29.6851L27.894 29.5108C27.9673 29.3143 28.0592 29.1108 28.1564 28.8952C28.6817 27.7316 29.401 26.1377 28.6203 22.5371C28.3278 21.1884 27.3512 20.5298 25.8708 20.6828C24.9833 20.7744 24.1713 21.1315 23.7663 21.3362C23.6792 21.3802 23.5995 21.4227 23.5251 21.4641C23.6382 20.1052 24.0652 17.5658 25.6627 15.959C26.6686 14.9476 28.0081 14.448 29.6403 14.4749C32.8561 14.5274 34.9183 16.1731 36.0822 17.5446C37.0851 18.7263 37.6281 19.9168 37.8449 20.5589C36.215 20.3936 35.1065 20.7144 34.5446 21.5155C33.3221 23.2581 35.2134 26.6403 36.1223 28.2658C36.2891 28.5637 36.4329 28.8211 36.4782 28.9306C36.7742 29.6459 37.1574 30.1235 37.4371 30.4721C37.5229 30.5789 37.6061 30.6825 37.6694 30.773C37.1757 30.9149 36.2891 31.2428 36.3699 32.8818C36.3047 33.7042 35.8413 37.5545 35.6058 38.9149C35.295 40.7121 34.6318 41.3815 32.7671 41.7803V41.7802ZM40.8369 32.5713C40.3321 32.8049 39.4874 32.9801 38.685 33.0178C37.7986 33.0592 37.3474 32.9188 37.2413 32.8324C37.1915 31.8111 37.5727 31.7044 37.9761 31.5914C38.0395 31.5737 38.1014 31.5563 38.1611 31.5355C38.1982 31.5656 38.2388 31.5955 38.2834 31.6248C38.9958 32.0937 40.2664 32.1443 42.0602 31.775L42.0799 31.7711C41.8379 31.9967 41.4239 32.2994 40.8369 32.5713Z" fill="white"/>
</svg>
