<svg width="57" height="56" viewBox="0 0 57 56" fill="none" xmlns="http://www.w3.org/2000/svg">
<path d="M16.7626 31.0289C18.4434 31.0289 19.806 29.6739 19.806 28.0024C19.806 26.3309 18.4434 24.9758 16.7626 24.9758C15.0817 24.9758 13.7191 26.3309 13.7191 28.0024C13.7191 29.6739 15.0817 31.0289 16.7626 31.0289Z" fill="#FF6309"/>
<path d="M38.5859 43.5556C40.2668 43.5556 41.6295 42.2004 41.6295 40.5288C41.6295 38.8572 40.2668 37.5021 38.5859 37.5021C36.9049 37.5021 35.5422 38.8572 35.5422 40.5288C35.5422 42.2004 36.9049 43.5556 38.5859 43.5556Z" fill="#FFB515"/>
<path d="M38.5833 18.4975C40.2641 18.4975 41.6267 17.1425 41.6267 15.471C41.6267 13.7995 40.2641 12.4444 38.5833 12.4444C36.9024 12.4444 35.5399 13.7995 35.5399 15.471C35.5399 17.1425 36.9024 18.4975 38.5833 18.4975Z" fill="#C90016"/>
<path d="M31.311 20.5133C35.1007 20.5133 38.2448 23.3116 38.7656 26.9395H43.9797C43.7425 24.0888 42.5545 21.4317 40.5673 19.3363C39.2946 19.9808 37.7297 19.9931 36.4005 19.2302C35.0702 18.4662 34.2984 17.1115 34.2244 15.6918C33.2691 15.4705 32.2914 15.359 31.3105 15.3594C29.4079 15.3594 27.5693 15.7724 25.8972 16.5555L28.5082 21.0519C29.3991 20.6954 30.3506 20.5125 31.311 20.5133Z" fill="#FF6309"/>
<path d="M23.7804 28.0024C23.7804 25.6164 24.9082 23.4878 26.6611 22.1155L24.0512 17.6197C23.4329 18.0493 22.8538 18.532 22.3204 19.0623C20.81 20.5644 19.7268 22.3779 19.1308 24.3572C20.3317 25.1307 21.1269 26.4735 21.1269 28.0024C21.1269 29.5308 20.3317 30.8739 19.1308 31.6472C19.7268 33.6264 20.81 35.4397 22.3204 36.9422C22.8534 37.4722 23.432 37.9548 24.0497 38.3844L26.6601 33.888C24.9075 32.5159 23.7804 30.3876 23.7804 28.0024Z" fill="#FFB515"/>
<path d="M38.7659 29.0618C38.2466 32.6909 35.1018 35.491 31.311 35.491C30.3205 35.491 29.3739 35.2993 28.5072 34.952L25.8964 39.4485C27.5681 40.2321 29.4077 40.6452 31.3108 40.6452C32.305 40.6452 33.282 40.5312 34.2267 40.3125C34.2995 38.8909 35.0713 37.5338 36.4026 36.7694C37.7323 36.006 39.2978 36.018 40.5705 36.6638C42.5558 34.5681 43.743 31.9114 43.9792 29.0618H38.7659Z" fill="#C90016"/>
</svg>
