<?xml version="1.0" encoding="UTF-8"?>
<!DOCTYPE svg PUBLIC "-//W3C//DTD SVG 1.1//EN" "http://www.w3.org/Graphics/SVG/1.1/DTD/svg11.dtd">
<!-- Creator: CorelDRAW -->
<svg xmlns="http://www.w3.org/2000/svg" xml:space="preserve" width="6.82666in" height="6.82666in" style="shape-rendering:geometricPrecision; text-rendering:geometricPrecision; image-rendering:optimizeQuality; fill-rule:evenodd; clip-rule:evenodd"
viewBox="0 0 6.82666 6.82666"
 xmlns:xlink="http://www.w3.org/1999/xlink">
 <defs>
  <style type="text/css">
   <![CDATA[
    .fil2 {fill:none}
    .fil1 {fill:#00897B}
    .fil0 {fill:#26A69A}
    .fil5 {fill:#FFB205}
    .fil4 {fill:#FFC107}
    .fil3 {fill:#FF6F00;fill-rule:nonzero}
   ]]>
  </style>
   <clipPath id="id0">
    <path d="M3.41333 -3.93701e-006c1.88513,0 3.41333,1.5282 3.41333,3.41333 0,1.88513 -1.5282,3.41333 -3.41333,3.41333 -1.88513,0 -3.41333,-1.5282 -3.41333,-3.41333 0,-1.88513 1.5282,-3.41333 3.41333,-3.41333z"/>
   </clipPath>
 </defs>
 <g id="Layer_x0020_1">
  <metadata id="CorelCorpID_0Corel-Layer"/>
  <path class="fil0" d="M3.41333 -3.93701e-006c1.88513,0 3.41333,1.5282 3.41333,3.41333 0,1.88513 -1.5282,3.41333 -3.41333,3.41333 -1.88513,0 -3.41333,-1.5282 -3.41333,-3.41333 0,-1.88513 1.5282,-3.41333 3.41333,-3.41333z"/>
  <g style="clip-path:url(#id0)">
   <g id="_457169552">
    <g>
     <polygon id="_4545976001" class="fil1" points="3.47595,1.5762 7.26222,5.36247 7.26689,5.36872 7.27096,5.37541 7.27438,5.3825 7.27711,5.38996 7.27911,5.39774 7.28034,5.4058 7.28076,5.41409 3.49449,1.62782 3.49407,1.61952 3.49284,1.61146 3.49084,1.60369 3.48811,1.59623 3.48469,1.58914 3.48063,1.58244 "/>
     <polygon id="_454597792" class="fil1" points="3.49449,1.62782 7.28076,5.41409 7.28076,5.71168 3.49449,1.92541 "/>
     <polygon id="_454599304" class="fil1" points="3.49449,1.92541 7.28076,5.71168 7.28034,5.71998 7.27911,5.72804 7.27711,5.73581 7.27438,5.74327 7.27096,5.75036 7.26689,5.75706 7.26222,5.7633 7.25698,5.76907 7.25122,5.7743 7.24497,5.77898 7.23828,5.78304 7.23119,5.78646 7.22373,5.78919 7.21595,5.79119 7.20789,5.79242 7.19959,5.79284 3.41333,2.00657 3.42163,2.00615 3.42969,2.00492 3.43746,2.00292 3.44492,2.00019 3.45201,1.99677 3.4587,1.9927 3.46495,1.98803 3.47072,1.9828 3.47595,1.97703 3.48063,1.97078 3.48469,1.96409 3.48811,1.957 3.49084,1.94954 3.49284,1.94176 3.49407,1.9337 "/>
     <polygon id="_454599520" class="fil1" points="3.41333,2.00657 7.19959,5.79284 7.1913,5.79242 7.18324,5.79119 7.17546,5.78919 7.168,5.78646 7.16091,5.78304 7.15422,5.77898 7.14797,5.7743 7.1422,5.76907 3.35594,1.9828 3.3617,1.98803 3.36795,1.9927 3.37464,1.99677 3.38174,2.00019 3.38919,2.00292 3.39697,2.00492 3.40503,2.00615 "/>
     <polygon id="_454599832" class="fil1" points="2.19481,2.70963 5.98108,6.49591 5.97661,6.50286 5.97154,6.50921 5.96596,6.51493 5.95991,6.52001 5.95343,6.52444 5.94661,6.5282 5.93947,6.53128 5.93209,6.53365 5.92452,6.53531 5.9168,6.53625 5.90901,6.53644 5.90119,6.53587 5.8934,6.53453 5.88569,6.53239 5.87813,6.52946 5.87076,6.5257 2.08449,2.73943 2.09186,2.74319 2.09943,2.74612 2.10713,2.74826 2.11493,2.7496 2.12274,2.75017 2.13054,2.74998 2.13825,2.74904 2.14582,2.74738 2.1532,2.745 2.16034,2.74193 2.16717,2.73817 2.17364,2.73374 2.17969,2.72866 2.18528,2.72294 2.19034,2.71659 "/>
     <polygon id="_454599856" class="fil1" points="2.00657,3.41333 5.79283,7.1996 5.79242,7.2079 5.79119,7.21596 5.78919,7.22374 5.78646,7.23119 5.78304,7.23829 5.77897,7.24498 5.7743,7.25123 5.76906,7.25699 5.7633,7.26223 5.75705,7.2669 5.75036,7.27097 5.74326,7.27439 5.73581,7.27711 5.72803,7.27911 5.71997,7.28035 5.71167,7.28076 1.92541,3.49449 1.9337,3.49407 1.94176,3.49284 1.94954,3.49084 1.957,3.48811 1.96409,3.4847 1.97078,3.48063 1.97703,3.47596 1.9828,3.47072 1.98803,3.46496 1.9927,3.45871 1.99677,3.45202 2.00019,3.44492 2.00292,3.43746 2.00492,3.42969 2.00615,3.42163 "/>
     <polygon id="_454599328" class="fil1" points="1.92541,3.49449 5.71167,7.28076 5.41409,7.28076 1.62782,3.49449 "/>
     <polygon id="_454599160" class="fil1" points="1.9828,3.35594 5.76906,7.14221 5.7743,7.14798 5.77897,7.15422 5.78304,7.16092 5.78646,7.16801 5.78919,7.17547 5.79119,7.18324 5.79242,7.1913 5.79283,7.1996 2.00657,3.41333 2.00615,3.40503 2.00492,3.39697 2.00292,3.3892 2.00019,3.38174 1.99677,3.37465 1.9927,3.36795 1.98803,3.3617 "/>
     <polygon id="_454599568" class="fil1" points="3.41118,4.63072 7.19744,8.417 7.13489,8.41531 7.07316,8.41051 7.01233,8.40269 6.95247,8.3919 6.89367,8.37824 6.836,8.36177 6.77952,8.34258 6.72433,8.32074 6.6705,8.29632 6.6181,8.26941 6.56721,8.24007 6.51791,8.20839 6.47026,8.17443 6.42435,8.13829 6.38026,8.10003 2.594,4.31376 2.63809,4.35202 2.68399,4.38816 2.73164,4.42211 2.78094,4.4538 2.83183,4.48313 2.88423,4.51005 2.93807,4.53446 2.99326,4.55631 3.04973,4.5755 3.1074,4.59196 3.1662,4.60563 3.22606,4.61641 3.28689,4.62424 3.34862,4.62904 "/>
     <polygon id="_454599280" class="fil1" points="1.62782,3.49449 5.41409,7.28076 5.40579,7.28035 5.39773,7.27911 5.38996,7.27711 5.3825,7.27439 5.37541,7.27097 5.36871,7.2669 5.36246,7.26223 1.5762,3.47596 1.58244,3.48063 1.58914,3.4847 1.59623,3.48811 1.60369,3.49084 1.61146,3.49284 1.61952,3.49407 "/>
     <polygon id="_454599448" class="fil1" points="4.36537,1.81209 8.15164,5.59837 8.15672,5.60442 8.16115,5.61089 8.16491,5.61772 8.16798,5.62485 8.17036,5.63224 8.17202,5.63981 8.17296,5.64752 8.17315,5.65531 8.17258,5.66313 8.17124,5.67093 8.1691,5.67863 8.16617,5.6862 8.16241,5.69357 4.37615,1.9073 4.3799,1.89993 4.38283,1.89236 4.38497,1.88465 4.38631,1.87686 4.38688,1.86904 4.38669,1.86125 4.38576,1.85354 4.38409,1.84596 4.38172,1.83858 4.37864,1.83145 4.37488,1.82462 4.37045,1.81815 "/>
     <polygon id="_454599472" class="fil1" points="4.37615,1.9073 8.16241,5.69357 8.01362,5.95129 4.22735,2.16502 "/>
     <polygon id="_454600528" class="fil1" points="4.22735,2.16502 8.01362,5.95129 8.00915,5.95824 8.00408,5.96459 7.9985,5.97031 7.99244,5.97539 7.98597,5.97982 7.97915,5.98358 7.97201,5.98666 7.96463,5.98904 7.95706,5.9907 7.94934,5.99163 7.94155,5.99182 7.93373,5.99125 7.92594,5.98991 7.91823,5.98778 7.91067,5.98484 7.9033,5.98109 4.11703,2.19481 4.1244,2.19857 4.13196,2.2015 4.13967,2.20364 4.14746,2.20498 4.15528,2.20555 4.16307,2.20536 4.17079,2.20443 4.17836,2.20276 4.18574,2.20039 4.19288,2.19731 4.1997,2.19355 4.20618,2.18912 4.21223,2.18404 4.21781,2.17832 4.22288,2.17197 "/>
     <polygon id="_454600264" class="fil1" points="4.11703,2.19481 7.9033,5.98109 7.89634,5.97661 7.88999,5.97155 7.88427,5.96596 4.098,2.17969 4.10372,2.18528 4.11007,2.19034 "/>
     <polygon id="_454600384" class="fil1" points="5.02969,2.48031 8.81595,6.26659 8.81971,6.27396 8.82264,6.28152 8.82478,6.28923 8.82612,6.29702 8.82669,6.30484 8.8265,6.31263 8.82556,6.32035 8.8239,6.32792 8.82152,6.3353 8.81845,6.34244 8.81469,6.34926 8.81026,6.35574 8.80518,6.36179 8.79946,6.36737 8.79311,6.37244 8.78615,6.37691 4.99989,2.59064 5.00684,2.58617 5.01319,2.5811 5.01891,2.57552 5.02399,2.56946 5.02842,2.56299 5.03218,2.55617 5.03526,2.54903 5.03763,2.54165 5.0393,2.53407 5.04023,2.52636 5.04042,2.51857 5.03985,2.51075 5.03851,2.50296 5.03637,2.49525 5.03344,2.48769 "/>
     <polygon id="_454600168" class="fil1" points="4.99989,2.59064 8.78615,6.37691 8.52844,6.5257 4.74217,2.73943 "/>
     <polygon id="_454600408" class="fil1" points="4.74217,2.73943 8.52844,6.5257 8.52107,6.52946 8.5135,6.53239 8.50579,6.53453 8.498,6.53587 8.49018,6.53644 8.48239,6.53625 8.47468,6.53531 8.4671,6.53365 8.45972,6.53128 8.45259,6.5282 8.44576,6.52444 8.43929,6.52001 8.43323,6.51493 8.42765,6.50921 4.64138,2.72294 4.64696,2.72866 4.65302,2.73374 4.65949,2.73817 4.66632,2.74193 4.67345,2.745 4.68083,2.74738 4.68841,2.74904 4.69612,2.74998 4.70391,2.75017 4.71173,2.7496 4.71952,2.74826 4.72723,2.74612 4.7348,2.74319 "/>
     <polygon id="_454600432" class="fil1" points="5.02015,2.46701 8.80641,6.25328 8.81148,6.25963 8.81595,6.26659 5.02969,2.48031 5.02521,2.47336 "/>
     <polygon id="_454600096" class="fil1" points="5.26146,3.3617 9.04773,7.14798 9.0524,7.15422 9.05647,7.16092 9.05989,7.16801 9.06261,7.17547 9.06461,7.18324 9.06585,7.1913 9.06626,7.1996 5.28,3.41333 5.27958,3.40503 5.27835,3.39697 5.27635,3.3892 5.27362,3.38174 5.2702,3.37465 5.26613,3.36795 "/>
     <polygon id="_454600456" class="fil1" points="2.08449,2.73943 5.87076,6.5257 5.61304,6.37691 1.82677,2.59064 "/>
     <polygon id="_454600600" class="fil1" points="1.82677,2.59064 5.61304,6.37691 5.60608,6.37244 5.59974,6.36737 1.81347,2.5811 1.81981,2.58617 "/>
     <polygon id="_454600120" class="fil1" points="2.18404,2.61443 5.97031,6.4007 5.97539,6.40676 5.97982,6.41322 5.98358,6.42006 5.98665,6.42719 5.98903,6.43457 5.99069,6.44214 5.99163,6.44985 5.99182,6.45765 5.99125,6.46547 5.98991,6.47326 5.98777,6.48097 5.98484,6.48854 5.98108,6.49591 2.19481,2.70963 2.19857,2.70226 2.2015,2.6947 2.20364,2.68699 2.20498,2.6792 2.20555,2.67138 2.20536,2.66358 2.20443,2.65587 2.20276,2.6483 2.20039,2.64092 2.19731,2.63378 2.19355,2.62695 2.18912,2.62048 "/>
     <polygon id="_454600864" class="fil1" points="2.73943,2.08449 6.5257,5.87076 6.52946,5.87813 6.53239,5.8857 6.53452,5.89341 6.53587,5.9012 6.53644,5.90902 6.53625,5.91681 6.53531,5.92452 6.53365,5.93209 6.53127,5.93948 6.5282,5.94661 6.52444,5.95344 6.52001,5.95991 6.51493,5.96596 6.5092,5.97155 6.50286,5.97661 6.4959,5.98109 2.70963,2.19481 2.71659,2.19034 2.72294,2.18528 2.72866,2.17969 2.73374,2.17364 2.73817,2.16717 2.74193,2.16034 2.745,2.1532 2.74738,2.14582 2.74904,2.13825 2.74998,2.13054 2.75017,2.12274 2.7496,2.11493 2.74826,2.10713 2.74612,2.09943 2.74319,2.09186 "/>
     <polygon id="_454601344" class="fil1" points="2.70963,2.19481 6.4959,5.98109 6.48853,5.98484 6.48096,5.98778 6.47326,5.98991 6.46546,5.99125 6.45765,5.99182 6.44985,5.99163 6.44214,5.9907 6.43457,5.98904 6.42719,5.98666 6.42005,5.98358 6.41322,5.97982 6.40675,5.97539 6.4007,5.97031 2.61443,2.18404 2.62048,2.18912 2.62695,2.19355 2.63378,2.19731 2.64092,2.20039 2.6483,2.20276 2.65587,2.20443 2.66358,2.20536 2.67138,2.20555 2.6792,2.20498 2.68699,2.20364 2.6947,2.2015 2.70226,2.19857 "/>
     <polygon id="_454601104" class="fil1" points="2.5811,1.81347 6.36737,5.59974 6.37243,5.60609 6.37691,5.61304 2.59064,1.82677 2.58617,1.81981 "/>
     <polygon id="_454601392" class="fil1" points="2.59064,1.82677 6.37691,5.61304 6.5257,5.87076 2.73943,2.08449 "/>
     <polygon id="_454600984" class="fil1" points="4.31446,2.59478 8.10073,6.38106 8.139,6.42523 8.17514,6.47122 8.20908,6.51894 8.24074,6.56834 8.27006,6.61932 8.29694,6.67181 8.32132,6.72574 8.34312,6.78102 8.36226,6.83759 8.37866,6.89536 8.39226,6.95426 8.40296,7.0142 8.4107,7.07513 8.41541,7.13696 8.41699,7.1996 8.41541,7.26225 8.4107,7.32407 8.40296,7.385 8.39226,7.44495 8.37866,7.50385 8.36226,7.56162 8.34312,7.61818 8.32132,7.67346 8.29694,7.72739 8.27006,7.77988 8.24074,7.83087 8.20908,7.88026 8.17514,7.92799 8.139,7.97398 8.10073,8.01815 8.06042,8.06043 8.01814,8.10074 7.97397,8.139 7.92798,8.17514 7.88025,8.20908 7.83086,8.24075 7.77988,8.27006 7.72739,8.29695 7.67346,8.32133 7.61818,8.34313 7.56161,8.36226 7.50384,8.37867 7.44494,8.39226 7.38499,8.40297 7.32407,8.41071 7.26224,8.41541 7.19959,8.417 7.19933,8.417 7.19906,8.417 7.19879,8.417 7.19852,8.417 7.19825,8.417 7.19798,8.417 7.19771,8.417 7.19744,8.417 3.41118,4.63072 3.41144,4.63072 3.41171,4.63072 3.41198,4.63072 3.41225,4.63072 3.41252,4.63072 3.41279,4.63072 3.41306,4.63072 3.41333,4.63072 3.47597,4.62914 3.5378,4.62444 3.59872,4.6167 3.65867,4.60599 3.71757,4.5924 3.77534,4.57599 3.83191,4.55685 3.88719,4.53506 3.94112,4.51068 3.99361,4.48379 4.04459,4.45448 4.09398,4.42281 4.14171,4.38887 4.1877,4.35273 4.23187,4.31447 4.27415,4.27416 4.31446,4.23188 4.35273,4.1877 4.38887,4.14172 4.42281,4.09399 4.45448,4.04459 4.48379,3.99361 4.51067,3.94112 4.53505,3.88719 4.55685,3.83191 4.57599,3.77535 4.59239,3.71757 4.60599,3.65868 4.61669,3.59873 4.62444,3.5378 4.62914,3.47598 4.63072,3.41333 4.62914,3.35069 4.62444,3.28886 4.61669,3.22793 4.60599,3.16798 4.59239,3.10909 4.57599,3.05131 4.55685,2.99475 4.53505,2.93947 4.51067,2.88554 4.48379,2.83305 4.45448,2.78207 4.42281,2.73267 4.38887,2.68494 4.35273,2.63896 "/>
     <polygon id="_454600792" class="fil1" points="4.37615,4.91936 8.16241,8.70563 8.16617,8.713 8.1691,8.72057 8.17124,8.72828 8.17258,8.73607 8.17315,8.74389 8.17296,8.75168 8.17202,8.75939 8.17036,8.76696 8.16798,8.77435 8.16491,8.78148 8.16115,8.78831 8.15672,8.79478 8.15164,8.80083 8.14592,8.80642 8.13957,8.81148 8.13261,8.81596 4.34635,5.02969 4.3533,5.02521 4.35965,5.02015 4.36537,5.01456 4.37045,5.00851 4.37488,5.00204 4.37864,4.99521 4.38172,4.98807 4.38409,4.98069 4.38576,4.97312 4.38669,4.96541 4.38688,4.95761 4.38631,4.9498 4.38497,4.942 4.38283,4.9343 4.3799,4.92673 "/>
     <polygon id="_454600720" class="fil1" points="4.34635,5.02969 8.13261,8.81596 8.12524,8.81971 8.11768,8.82265 8.10997,8.82478 8.10218,8.82612 8.09436,8.82669 8.08657,8.8265 8.07885,8.82557 8.07128,8.82391 8.0639,8.82153 8.05676,8.81845 8.04994,8.81469 8.04346,8.81026 8.03741,8.80518 4.25114,5.01891 4.2572,5.02399 4.26367,5.02842 4.2705,5.03218 4.27763,5.03526 4.28501,5.03763 4.29259,5.0393 4.3003,5.04023 4.30809,5.04042 4.31591,5.03985 4.3237,5.03851 4.33141,5.03637 4.33898,5.03344 "/>
     <polygon id="_454601032" class="fil1" points="4.21223,4.64262 7.9985,8.42889 8.00408,8.43461 8.00915,8.44096 8.01362,8.44792 4.22735,4.66165 4.22288,4.65469 4.21781,4.64834 "/>
     <polygon id="_454601152" class="fil1" points="2.17969,4.098 5.96596,7.88428 5.97154,7.89 5.97661,7.89634 5.98108,7.9033 2.19481,4.11703 2.19034,4.11007 2.18528,4.10372 "/>
     <polygon id="_454600936" class="fil1" points="2.19481,4.11703 5.98108,7.9033 5.98484,7.91067 5.98777,7.91824 5.98991,7.92594 5.99125,7.93374 5.99182,7.94156 5.99163,7.94935 5.99069,7.95706 5.98903,7.96463 5.98665,7.97202 5.98358,7.97915 5.97982,7.98598 5.97539,7.99245 5.97031,7.9985 5.96459,8.00409 5.95824,8.00915 5.95128,8.01363 2.16502,4.22735 2.17197,4.22288 2.17832,4.21781 2.18404,4.21223 2.18912,4.20618 2.19355,4.19971 2.19731,4.19288 2.20039,4.18574 2.20276,4.17836 2.20443,4.17079 2.20536,4.16308 2.20555,4.15528 2.20498,4.14746 2.20364,4.13967 2.2015,4.13196 2.19857,4.1244 "/>
     <polygon id="_454601920" class="fil1" points="2.16502,4.22735 5.95128,8.01363 5.69357,8.16242 1.9073,4.37615 "/>
     <polygon id="_454601944" class="fil1" points="1.9073,4.37615 5.69357,8.16242 5.6862,8.16617 5.67863,8.16911 5.67092,8.17124 5.66313,8.17258 5.65531,8.17315 5.64752,8.17296 5.63981,8.17203 5.63223,8.17037 5.62485,8.16799 5.61772,8.16491 5.61089,8.16115 5.60442,8.15672 5.59836,8.15164 1.81209,4.36537 1.81815,4.37045 1.82462,4.37488 1.83145,4.37864 1.83858,4.38172 1.84596,4.38409 1.85354,4.38576 1.86125,4.38669 1.86904,4.38688 1.87686,4.38631 1.88465,4.38497 1.89236,4.38283 1.89993,4.3799 "/>
     <polygon id="_454601608" class="fil1" points="2.72294,4.64138 6.5092,8.42765 6.51493,8.43324 6.52001,8.43929 6.52444,8.44576 6.5282,8.45259 6.53127,8.45972 6.53365,8.46711 6.53531,8.47468 6.53625,8.48239 6.53644,8.49019 6.53587,8.498 6.53452,8.5058 6.53239,8.5135 6.52946,8.52107 6.5257,8.52844 2.73943,4.74217 2.74319,4.7348 2.74612,4.72723 2.74826,4.71952 2.7496,4.71173 2.75017,4.70391 2.74998,4.69612 2.74904,4.68841 2.74738,4.68083 2.745,4.67345 2.74193,4.66632 2.73817,4.65949 2.73374,4.65302 2.72866,4.64696 "/>
     <polygon id="_454601824" class="fil1" points="2.73943,4.74217 6.5257,8.52844 6.37691,8.78616 2.59064,4.99989 "/>
     <polygon id="_454602136" class="fil1" points="2.59064,4.99989 6.37691,8.78616 6.37243,8.79311 6.36737,8.79946 6.36179,8.80518 6.35573,8.81026 6.34926,8.81469 6.34243,8.81845 6.3353,8.82153 6.32792,8.82391 6.32034,8.82557 6.31263,8.8265 6.30484,8.82669 6.29702,8.82612 6.28923,8.82478 6.28152,8.82265 6.27395,8.81971 6.26658,8.81596 2.48031,5.02969 2.48769,5.03344 2.49525,5.03637 2.50296,5.03851 2.51075,5.03985 2.51857,5.04042 2.52636,5.04023 2.53407,5.0393 2.54165,5.03763 2.54903,5.03526 2.55617,5.03218 2.56299,5.02842 2.56946,5.02399 2.57552,5.01891 2.5811,5.01319 2.58617,5.00684 "/>
     <polygon id="_454602160" class="fil1" points="2.48031,5.02969 6.26658,8.81596 6.25963,8.81148 6.25328,8.80642 2.46701,5.02015 2.47336,5.02521 "/>
     <polygon id="_454601632" class="fil1" points="5.28,3.41333 9.06626,7.1996 9.06585,7.2079 9.06461,7.21596 9.06261,7.22374 9.05989,7.23119 9.05647,7.23829 9.0524,7.24498 9.04773,7.25123 9.04249,7.25699 9.03673,7.26223 9.03048,7.2669 9.02379,7.27097 9.01669,7.27439 9.00924,7.27711 9.00146,7.27911 8.9934,7.28035 8.9851,7.28076 5.19883,3.49449 5.20713,3.49407 5.21519,3.49284 5.22297,3.49084 5.23043,3.48811 5.23752,3.4847 5.24421,3.48063 5.25046,3.47596 5.25622,3.47072 5.26146,3.46496 5.26613,3.45871 5.2702,3.45202 5.27362,3.44492 5.27635,3.43746 5.27835,3.42969 5.27958,3.42163 "/>
     <polygon id="_454601464" class="fil1" points="5.19883,3.49449 8.9851,7.28076 8.68752,7.28076 4.90125,3.49449 "/>
     <polygon id="_454601896" class="fil1" points="4.90125,3.49449 8.68752,7.28076 8.67922,7.28035 8.67116,7.27911 8.66339,7.27711 8.65593,7.27439 8.64883,7.27097 8.64214,7.2669 8.63589,7.26223 8.63013,7.25699 4.84386,3.47072 4.84963,3.47596 4.85587,3.48063 4.86257,3.4847 4.86966,3.48811 4.87712,3.49084 4.88489,3.49284 4.89295,3.49407 "/>
     <polygon id="_454601656" class="fil1" points="5.01891,4.25114 8.80518,8.03741 8.81026,8.04347 8.81469,8.04994 8.81845,8.05677 8.82152,8.0639 8.8239,8.07128 8.82556,8.07886 8.8265,8.08657 8.82669,8.09436 8.82612,8.10218 8.82478,8.10997 8.82264,8.11768 8.81971,8.12525 8.81595,8.13262 5.02969,4.34635 5.03344,4.33898 5.03637,4.33141 5.03851,4.3237 5.03985,4.31591 5.04042,4.30809 5.04023,4.3003 5.0393,4.29259 5.03763,4.28501 5.03526,4.27763 5.03218,4.2705 5.02842,4.26367 5.02399,4.2572 "/>
     <polygon id="_454601752" class="fil1" points="5.02969,4.34635 8.81595,8.13262 8.81148,8.13957 8.80641,8.14592 8.80083,8.15164 8.79478,8.15672 8.7883,8.16115 8.78148,8.16491 8.77434,8.16799 8.76696,8.17037 8.75939,8.17203 8.75167,8.17296 8.74388,8.17315 8.73606,8.17258 8.72827,8.17124 8.72056,8.16911 8.713,8.16617 8.70563,8.16242 4.91936,4.37615 4.92673,4.3799 4.9343,4.38283 4.942,4.38497 4.9498,4.38631 4.95761,4.38688 4.96541,4.38669 4.97312,4.38576 4.98069,4.38409 4.98807,4.38172 4.99521,4.37864 5.00204,4.37488 5.00851,4.37045 5.01456,4.36537 5.02015,4.35965 5.02521,4.3533 "/>
     <polygon id="_454602328" class="fil1" points="4.91936,4.37615 8.70563,8.16242 8.44791,8.01363 4.66165,4.22735 "/>
     <polygon id="_454602832" class="fil1" points="4.66165,4.22735 8.44791,8.01363 8.44096,8.00915 8.43461,8.00409 8.42889,7.9985 4.64262,4.21223 4.64834,4.21781 4.65469,4.22288 "/>
     <polygon id="_454602568" class="fil1" points="4.22735,4.66165 8.01362,8.44792 8.16241,8.70563 4.37615,4.91936 "/>
     <polygon id="_454602688" class="fil1" points="3.47072,4.84386 7.25698,8.63013 7.26222,8.6359 7.26689,8.64215 7.27096,8.64884 7.27438,8.65593 7.27711,8.66339 7.27911,8.67117 7.28034,8.67922 7.28076,8.68752 3.49449,4.90125 3.49407,4.89295 3.49284,4.88489 3.49084,4.87712 3.48811,4.86966 3.48469,4.86257 3.48063,4.85587 3.47595,4.84963 "/>
     <polygon id="_454602472" class="fil1" points="3.49449,4.90125 7.28076,8.68752 7.28076,8.98511 3.49449,5.19883 "/>
     <polygon id="_454602712" class="fil1" points="3.41333,5.28 7.19959,9.06627 7.1913,9.06585 7.18324,9.06462 7.17546,9.06262 7.168,9.05989 7.16091,9.05647 7.15422,9.05241 7.14797,9.04773 3.3617,5.26146 3.36795,5.26613 3.37464,5.2702 3.38174,5.27362 3.38919,5.27635 3.39697,5.27835 3.40503,5.27958 "/>
     <polygon id="_454602736" class="fil1" points="3.49449,5.19883 7.28076,8.98511 7.28034,8.99341 7.27911,9.00146 7.27711,9.00924 7.27438,9.0167 7.27096,9.02379 7.26689,9.03048 7.26222,9.03673 7.25698,9.0425 7.25122,9.04773 7.24497,9.05241 7.23828,9.05647 7.23119,9.05989 7.22373,9.06262 7.21595,9.06462 7.20789,9.06585 7.19959,9.06627 3.41333,5.28 3.42163,5.27958 3.42969,5.27835 3.43746,5.27635 3.44492,5.27362 3.45201,5.2702 3.4587,5.26613 3.46495,5.26146 3.47072,5.25622 3.47595,5.25046 3.48063,5.24421 3.48469,5.23752 3.48811,5.23043 3.49084,5.22297 3.49284,5.21519 3.49407,5.20713 "/>
    </g>
    <path id="_457169576" class="fil1" d="M3.41333 1.54666c0.0448228,0 0.0811614,0.0363386 0.0811614,0.0811614l0 0.297583c0,0.0448228 -0.0363386,0.0811614 -0.0811614,0.0811614 -0.0448228,0 -0.0811614,-0.0363386 -0.0811614,-0.0811614l0 -0.297583c0,-0.0448228 0.0363386,-0.0811614 0.0811614,-0.0811614zm0 0.649276c0.67235,0 1.21739,0.545047 1.21739,1.21739 0,0.672346 -0.545043,1.21739 -1.21739,1.21739 -0.000716535,0 -0.00143307,0 -0.00214961,0 -0.671358,-0.00116142 -1.21524,-0.545764 -1.21524,-1.21739 0,-0.67163 0.543886,-1.21623 1.21524,-1.21739 0.000716535,0 0.00143307,0 0.00214961,0zm0 2.62415c0.0448228,0 0.0811614,0.0363386 0.0811614,0.0811614l0 0.297583c0,0.0448228 -0.0363386,0.0811614 -0.0811614,0.0811614 -0.0448228,0 -0.0811614,-0.0363386 -0.0811614,-0.0811614l0 -0.297583c0,-0.0448228 0.0363386,-0.0811614 0.0811614,-0.0811614zm0.93302 -3.02312c0.0386929,0.0222362 0.0520354,0.0716339 0.0297992,0.110327l-0.148791 0.257717c-0.0222362,0.0386929 -0.0716339,0.0520354 -0.110327,0.0297992 -0.0386929,-0.0222362 -0.0520354,-0.0716339 -0.0297992,-0.110327l0.148791 -0.257717c0.0222362,-0.0386929 0.0716299,-0.0520354 0.110327,-0.0297992zm0.683339 0.683343c0.0222362,0.0386929 0.0088937,0.0880906 -0.0297992,0.110327l-0.257717 0.148791c-0.0386929,0.0222362 -0.0880906,0.0088937 -0.110327,-0.0297992 -0.0222362,-0.0386969 -0.0088937,-0.0880906 0.0298031,-0.110327l0.257713 -0.148791c0.0386929,-0.0222362 0.0880906,-0.0088937 0.110327,0.0297992zm0.16915 0.851854c0.0448228,0 0.0811614,0.0363386 0.0811614,0.0811614 0,0.0448228 -0.0363386,0.0811614 -0.0811614,0.0811614l-0.297583 0c-0.0448228,0 -0.0811614,-0.0363386 -0.0811614,-0.0811614 0,-0.0448228 0.0363386,-0.0811614 0.0811614,-0.0811614l0.297583 0zm-0.198949 0.90385c0.0386929,0.0222362 0.0520354,0.0716339 0.0297992,0.110327 -0.0222362,0.0386929 -0.0716339,0.0520354 -0.110327,0.0297992l-0.257713 -0.148791c-0.0386969,-0.0222362 -0.0520394,-0.0716299 -0.0298031,-0.110327 0.0222362,-0.0386929 0.0716339,-0.0520354 0.110327,-0.0297992l0.257717 0.148791zm-0.772531 0.425626l0.148791 0.257713c0.0222362,0.0386929 0.0088937,0.0880906 -0.0297992,0.110327 -0.0386929,0.0222362 -0.0880906,0.0088937 -0.110327,-0.0297992l-0.148791 -0.257717c-0.0222362,-0.0386929 -0.0088937,-0.0880906 0.0297992,-0.110327 0.0386969,-0.0222362 0.0880906,-0.0088937 0.110327,0.0298031zm-1.51772 -0.0298031c0.0386929,0.0222362 0.0520354,0.0716339 0.0297992,0.110327l-0.148791 0.257717c-0.0222362,0.0386929 -0.0716339,0.0520354 -0.110327,0.0297992 -0.0386929,-0.0222362 -0.0520354,-0.0716339 -0.0297992,-0.110327l0.148791 -0.257713c0.0222362,-0.0386969 0.0716299,-0.0520394 0.110327,-0.0298031zm-0.625146 -0.544614c0.0386929,-0.0222362 0.0880906,-0.0088937 0.110327,0.0297992 0.0222362,0.0386969 0.0088937,0.0880906 -0.0297992,0.110327l-0.257717 0.148791c-0.0386929,0.0222362 -0.0880906,0.0088937 -0.110327,-0.0297992 -0.0222362,-0.0386929 -0.0088937,-0.0880906 0.0297992,-0.110327l0.257717 -0.148791zm0.110327 -1.37759c-0.0222362,0.0386929 -0.0716339,0.0520354 -0.110327,0.0297992l-0.257717 -0.148791c-0.0386929,-0.0222362 -0.0520354,-0.0716339 -0.0297992,-0.110327 0.0222362,-0.0386929 0.0716339,-0.0520354 0.110327,-0.0297992l0.257717 0.148791c0.0386929,0.0222362 0.0520354,0.0716299 0.0297992,0.110327zm0.544618 -0.625146c0.0222362,0.0386929 0.0088937,0.0880906 -0.0297992,0.110327 -0.0386969,0.0222362 -0.0880906,0.0088937 -0.110327,-0.0297992l-0.148791 -0.257717c-0.0222362,-0.0386929 -0.0088937,-0.0880906 0.0297992,-0.110327 0.0386929,-0.0222362 0.0880906,-0.0088937 0.110327,0.0297992l0.148791 0.257717zm-0.732866 1.32884c0,0.0448228 -0.0363386,0.0811614 -0.0811614,0.0811614l-0.297583 0c-0.0448228,0 -0.0811614,-0.0363386 -0.0811614,-0.0811614 0,-0.0448228 0.0363386,-0.0811614 0.0811614,-0.0811614l0.297583 0c0.0448228,0 0.0811614,0.0363386 0.0811614,0.0811614z"/>
   </g>
  </g>
  <path class="fil2" d="M3.41333 -3.93701e-006c1.88513,0 3.41333,1.5282 3.41333,3.41333 0,1.88513 -1.5282,3.41333 -3.41333,3.41333 -1.88513,0 -3.41333,-1.5282 -3.41333,-3.41333 0,-1.88513 1.5282,-3.41333 3.41333,-3.41333z"/>
  <path class="fil3" d="M3.49449 1.62782c0,-0.0448228 -0.0363386,-0.0811614 -0.0811614,-0.0811614 -0.0448228,0 -0.0811614,0.0363386 -0.0811614,0.0811614l0 0.297583c0,0.0448228 0.0363386,0.0811614 0.0811614,0.0811614 0.0448228,0 0.0811614,-0.0363386 0.0811614,-0.0811614l0 -0.297583z"/>
  <path class="fil3" d="M3.49449 4.90125c0,-0.0448228 -0.0363386,-0.0811614 -0.0811614,-0.0811614 -0.0448228,0 -0.0811614,0.0363386 -0.0811614,0.0811614l0 0.297583c0,0.0448228 0.0363386,0.0811614 0.0811614,0.0811614 0.0448228,0 0.0811614,-0.0363386 0.0811614,-0.0811614l0 -0.297583z"/>
  <circle class="fil4" cx="3.41333" cy="3.41333" r="1.21739"/>
  <path class="fil5" d="M3.41118 4.6307c-0.671354,-0.00116142 -1.21524,-0.545736 -1.21524,-1.21737 0,-0.67163 0.54389,-1.2162 1.21524,-1.21737l0 2.43473z"/>
  <path class="fil3" d="M4.37615 1.9073c0.0222362,-0.0386929 0.0088937,-0.0880906 -0.0297992,-0.110327 -0.0386969,-0.0222362 -0.0880906,-0.0088937 -0.110327,0.0297992l-0.148791 0.257717c-0.0222362,0.0386929 -0.0088937,0.0880906 0.0297992,0.110327 0.0386929,0.0222362 0.0880906,0.0088937 0.110327,-0.0297992l0.148791 -0.257717z"/>
  <path class="fil3" d="M2.73943 4.74217c0.0222362,-0.0386929 0.0088937,-0.0880906 -0.0297992,-0.110327 -0.0386969,-0.0222362 -0.0880906,-0.0088937 -0.110327,0.0298031l-0.148791 0.257713c-0.0222362,0.0386929 -0.0088937,0.0880906 0.0297992,0.110327 0.0386929,0.0222362 0.0880906,0.0088937 0.110327,-0.0297992l0.148791 -0.257717z"/>
  <path class="fil3" d="M4.99989 2.59064c0.0386929,-0.0222362 0.0520354,-0.0716339 0.0297992,-0.110327 -0.0222362,-0.0386929 -0.0716339,-0.0520354 -0.110327,-0.0297992l-0.257713 0.148791c-0.0386969,0.0222362 -0.0520394,0.0716299 -0.0298031,0.110327 0.0222362,0.0386929 0.0716339,0.0520354 0.110327,0.0297992l0.257717 -0.148791z"/>
  <path class="fil3" d="M2.16502 4.22735c0.0386929,-0.0222362 0.0520354,-0.0716299 0.0297992,-0.110327 -0.0222362,-0.0386929 -0.0716339,-0.0520354 -0.110327,-0.0297992l-0.257717 0.148791c-0.0386929,0.0222362 -0.0520354,0.0716339 -0.0297992,0.110327 0.0222362,0.0386929 0.0716339,0.0520354 0.110327,0.0297992l0.257717 -0.148791z"/>
  <path class="fil3" d="M5.19883 3.49449c0.0448228,0 0.0811614,-0.0363386 0.0811614,-0.0811614 0,-0.0448228 -0.0363386,-0.0811614 -0.0811614,-0.0811614l-0.297583 0c-0.0448228,0 -0.0811614,0.0363386 -0.0811614,0.0811614 0,0.0448228 0.0363386,0.0811614 0.0811614,0.0811614l0.297583 0z"/>
  <path class="fil3" d="M1.92541 3.49449c0.0448228,0 0.0811614,-0.0363386 0.0811614,-0.0811614 0,-0.0448228 -0.0363386,-0.0811614 -0.0811614,-0.0811614l-0.297583 0c-0.0448228,0 -0.0811614,0.0363386 -0.0811614,0.0811614 0,0.0448228 0.0363386,0.0811614 0.0811614,0.0811614l0.297583 0z"/>
  <path class="fil3" d="M4.91936 4.37615c0.0386929,0.0222362 0.0880906,0.0088937 0.110327,-0.0297992 0.0222362,-0.0386929 0.0088937,-0.0880906 -0.0297992,-0.110327l-0.257717 -0.148791c-0.0386929,-0.0222362 -0.0880906,-0.0088937 -0.110327,0.0297992 -0.0222362,0.0386969 -0.0088937,0.0880906 0.0298031,0.110327l0.257713 0.148791z"/>
  <path class="fil3" d="M2.08449 2.73943c0.0386929,0.0222362 0.0880906,0.0088937 0.110327,-0.0297992 0.0222362,-0.0386969 0.0088937,-0.0880906 -0.0297992,-0.110327l-0.257717 -0.148791c-0.0386929,-0.0222362 -0.0880906,-0.0088937 -0.110327,0.0297992 -0.0222362,0.0386929 -0.0088937,0.0880906 0.0297992,0.110327l0.257717 0.148791z"/>
  <path class="fil3" d="M4.23602 4.99989c0.0222362,0.0386929 0.0716339,0.0520354 0.110327,0.0297992 0.0386929,-0.0222362 0.0520354,-0.0716339 0.0297992,-0.110327l-0.148791 -0.257713c-0.0222362,-0.0386969 -0.0716299,-0.0520394 -0.110327,-0.0298031 -0.0386929,0.0222362 -0.0520354,0.0716339 -0.0297992,0.110327l0.148791 0.257717z"/>
  <path class="fil3" d="M2.59931 2.16502c0.0222362,0.0386929 0.0716299,0.0520354 0.110327,0.0297992 0.0386929,-0.0222362 0.0520354,-0.0716339 0.0297992,-0.110327l-0.148791 -0.257717c-0.0222362,-0.0386929 -0.0716339,-0.0520354 -0.110327,-0.0297992 -0.0386929,0.0222362 -0.0520354,0.0716339 -0.0297992,0.110327l0.148791 0.257717z"/>
 </g>
</svg>
