<svg xmlns="http://www.w3.org/2000/svg" xmlns:xlink="http://www.w3.org/1999/xlink" width="655.359" height="655.359" xml:space="preserve" style="shape-rendering:geometricPrecision;text-rendering:geometricPrecision;image-rendering:optimizeQuality;fill-rule:evenodd;clip-rule:evenodd" viewBox="0 0 6.827 6.827"><defs><style type="text/css">.fil2{fill:none}.fil1{fill:#00897b}.fil0{fill:#26a69a}.fil5{fill:#ffb205}.fil4{fill:#ffc107}.fil3{fill:#ff6f00;fill-rule:nonzero}</style><clipPath id="id0"><path d="M3.41333 -3.93701e-006c1.88513,0 3.41333,1.5282 3.41333,3.41333 0,1.88513 -1.5282,3.41333 -3.41333,3.41333 -1.88513,0 -3.41333,-1.5282 -3.41333,-3.41333 0,-1.88513 1.5282,-3.41333 3.41333,-3.41333z"/></clipPath></defs><g id="Layer_x0020_1"><metadata id="CorelCorpID_0Corel-Layer"/><path d="M3.41333 -3.93701e-006c1.88513,0 3.41333,1.5282 3.41333,3.41333 0,1.88513 -1.5282,3.41333 -3.41333,3.41333 -1.88513,0 -3.41333,-1.5282 -3.41333,-3.41333 0,-1.88513 1.5282,-3.41333 3.41333,-3.41333z" class="fil0"/><g style="clip-path:url(#id0)"><g id="_457169552"><g><polygon id="_4545976001" points="3.476 1.576 7.262 5.362 7.267 5.369 7.271 5.375 7.274 5.383 7.277 5.39 7.279 5.398 7.28 5.406 7.281 5.414 3.494 1.628 3.494 1.62 3.493 1.611 3.491 1.604 3.488 1.596 3.485 1.589 3.481 1.582" class="fil1"/><polygon id="_454597792" points="3.494 1.628 7.281 5.414 7.281 5.712 3.494 1.925" class="fil1"/><polygon id="_454599304" points="3.494 1.925 7.281 5.712 7.28 5.72 7.279 5.728 7.277 5.736 7.274 5.743 7.271 5.75 7.267 5.757 7.262 5.763 7.257 5.769 7.251 5.774 7.245 5.779 7.238 5.783 7.231 5.786 7.224 5.789 7.216 5.791 7.208 5.792 7.2 5.793 3.413 2.007 3.422 2.006 3.43 2.005 3.437 2.003 3.445 2 3.452 1.997 3.459 1.993 3.465 1.988 3.471 1.983 3.476 1.977 3.481 1.971 3.485 1.964 3.488 1.957 3.491 1.95 3.493 1.942 3.494 1.934" class="fil1"/><polygon id="_454599520" points="3.413 2.007 7.2 5.793 7.191 5.792 7.183 5.791 7.175 5.789 7.168 5.786 7.161 5.783 7.154 5.779 7.148 5.774 7.142 5.769 3.356 1.983 3.362 1.988 3.368 1.993 3.375 1.997 3.382 2 3.389 2.003 3.397 2.005 3.405 2.006" class="fil1"/><polygon id="_454599832" points="2.195 2.71 5.981 6.496 5.977 6.503 5.972 6.509 5.966 6.515 5.96 6.52 5.953 6.524 5.947 6.528 5.939 6.531 5.932 6.534 5.925 6.535 5.917 6.536 5.909 6.536 5.901 6.536 5.893 6.535 5.886 6.532 5.878 6.529 5.871 6.526 2.084 2.739 2.092 2.743 2.099 2.746 2.107 2.748 2.115 2.75 2.123 2.75 2.131 2.75 2.138 2.749 2.146 2.747 2.153 2.745 2.16 2.742 2.167 2.738 2.174 2.734 2.18 2.729 2.185 2.723 2.19 2.717" class="fil1"/><polygon id="_454599856" points="2.007 3.413 5.793 7.2 5.792 7.208 5.791 7.216 5.789 7.224 5.786 7.231 5.783 7.238 5.779 7.245 5.774 7.251 5.769 7.257 5.763 7.262 5.757 7.267 5.75 7.271 5.743 7.274 5.736 7.277 5.728 7.279 5.72 7.28 5.712 7.281 1.925 3.494 1.934 3.494 1.942 3.493 1.95 3.491 1.957 3.488 1.964 3.485 1.971 3.481 1.977 3.476 1.983 3.471 1.988 3.465 1.993 3.459 1.997 3.452 2 3.445 2.003 3.437 2.005 3.43 2.006 3.422" class="fil1"/><polygon id="_454599328" points="1.925 3.494 5.712 7.281 5.414 7.281 1.628 3.494" class="fil1"/><polygon id="_454599160" points="1.983 3.356 5.769 7.142 5.774 7.148 5.779 7.154 5.783 7.161 5.786 7.168 5.789 7.175 5.791 7.183 5.792 7.191 5.793 7.2 2.007 3.413 2.006 3.405 2.005 3.397 2.003 3.389 2 3.382 1.997 3.375 1.993 3.368 1.988 3.362" class="fil1"/><polygon id="_454599568" points="3.411 4.631 7.197 8.417 7.135 8.415 7.073 8.411 7.012 8.403 6.952 8.392 6.894 8.378 6.836 8.362 6.78 8.343 6.724 8.321 6.67 8.296 6.618 8.269 6.567 8.24 6.518 8.208 6.47 8.174 6.424 8.138 6.38 8.1 2.594 4.314 2.638 4.352 2.684 4.388 2.732 4.422 2.781 4.454 2.832 4.483 2.884 4.51 2.938 4.534 2.993 4.556 3.05 4.575 3.107 4.592 3.166 4.606 3.226 4.616 3.287 4.624 3.349 4.629" class="fil1"/><polygon id="_454599280" points="1.628 3.494 5.414 7.281 5.406 7.28 5.398 7.279 5.39 7.277 5.383 7.274 5.375 7.271 5.369 7.267 5.362 7.262 1.576 3.476 1.582 3.481 1.589 3.485 1.596 3.488 1.604 3.491 1.611 3.493 1.62 3.494" class="fil1"/><polygon id="_454599448" points="4.365 1.812 8.152 5.598 8.157 5.604 8.161 5.611 8.165 5.618 8.168 5.625 8.17 5.632 8.172 5.64 8.173 5.648 8.173 5.655 8.173 5.663 8.171 5.671 8.169 5.679 8.166 5.686 8.162 5.694 4.376 1.907 4.38 1.9 4.383 1.892 4.385 1.885 4.386 1.877 4.387 1.869 4.387 1.861 4.386 1.854 4.384 1.846 4.382 1.839 4.379 1.831 4.375 1.825 4.37 1.818" class="fil1"/><polygon id="_454599472" points="4.376 1.907 8.162 5.694 8.014 5.951 4.227 2.165" class="fil1"/><polygon id="_454600528" points="4.227 2.165 8.014 5.951 8.009 5.958 8.004 5.965 7.998 5.97 7.992 5.975 7.986 5.98 7.979 5.984 7.972 5.987 7.965 5.989 7.957 5.991 7.949 5.992 7.942 5.992 7.934 5.991 7.926 5.99 7.918 5.988 7.911 5.985 7.903 5.981 4.117 2.195 4.124 2.199 4.132 2.201 4.14 2.204 4.147 2.205 4.155 2.206 4.163 2.205 4.171 2.204 4.178 2.203 4.186 2.2 4.193 2.197 4.2 2.194 4.206 2.189 4.212 2.184 4.218 2.178 4.223 2.172" class="fil1"/><polygon id="_454600264" points="4.117 2.195 7.903 5.981 7.896 5.977 7.89 5.972 7.884 5.966 4.098 2.18 4.104 2.185 4.11 2.19" class="fil1"/><polygon id="_454600384" points="5.03 2.48 8.816 6.267 8.82 6.274 8.823 6.282 8.825 6.289 8.826 6.297 8.827 6.305 8.826 6.313 8.826 6.32 8.824 6.328 8.822 6.335 8.818 6.342 8.815 6.349 8.81 6.356 8.805 6.362 8.799 6.367 8.793 6.372 8.786 6.377 5 2.591 5.007 2.586 5.013 2.581 5.019 2.576 5.024 2.569 5.028 2.563 5.032 2.556 5.035 2.549 5.038 2.542 5.039 2.534 5.04 2.526 5.04 2.519 5.04 2.511 5.039 2.503 5.036 2.495 5.033 2.488" class="fil1"/><polygon id="_454600168" points="5 2.591 8.786 6.377 8.528 6.526 4.742 2.739" class="fil1"/><polygon id="_454600408" points="4.742 2.739 8.528 6.526 8.521 6.529 8.514 6.532 8.506 6.535 8.498 6.536 8.49 6.536 8.482 6.536 8.475 6.535 8.467 6.534 8.46 6.531 8.453 6.528 8.446 6.524 8.439 6.52 8.433 6.515 8.428 6.509 4.641 2.723 4.647 2.729 4.653 2.734 4.659 2.738 4.666 2.742 4.673 2.745 4.681 2.747 4.688 2.749 4.696 2.75 4.704 2.75 4.712 2.75 4.72 2.748 4.727 2.746 4.735 2.743" class="fil1"/><polygon id="_454600432" points="5.02 2.467 8.806 6.253 8.811 6.26 8.816 6.267 5.03 2.48 5.025 2.473" class="fil1"/><polygon id="_454600096" points="5.261 3.362 9.048 7.148 9.052 7.154 9.056 7.161 9.06 7.168 9.063 7.175 9.065 7.183 9.066 7.191 9.066 7.2 5.28 3.413 5.28 3.405 5.278 3.397 5.276 3.389 5.274 3.382 5.27 3.375 5.266 3.368" class="fil1"/><polygon id="_454600456" points="2.084 2.739 5.871 6.526 5.613 6.377 1.827 2.591" class="fil1"/><polygon id="_454600600" points="1.827 2.591 5.613 6.377 5.606 6.372 5.6 6.367 1.813 2.581 1.82 2.586" class="fil1"/><polygon id="_454600120" points="2.184 2.614 5.97 6.401 5.975 6.407 5.98 6.413 5.984 6.42 5.987 6.427 5.989 6.435 5.991 6.442 5.992 6.45 5.992 6.458 5.991 6.465 5.99 6.473 5.988 6.481 5.985 6.489 5.981 6.496 2.195 2.71 2.199 2.702 2.201 2.695 2.204 2.687 2.205 2.679 2.206 2.671 2.205 2.664 2.204 2.656 2.203 2.648 2.2 2.641 2.197 2.634 2.194 2.627 2.189 2.62" class="fil1"/><polygon id="_454600864" points="2.739 2.084 6.526 5.871 6.529 5.878 6.532 5.886 6.535 5.893 6.536 5.901 6.536 5.909 6.536 5.917 6.535 5.925 6.534 5.932 6.531 5.939 6.528 5.947 6.524 5.953 6.52 5.96 6.515 5.966 6.509 5.972 6.503 5.977 6.496 5.981 2.71 2.195 2.717 2.19 2.723 2.185 2.729 2.18 2.734 2.174 2.738 2.167 2.742 2.16 2.745 2.153 2.747 2.146 2.749 2.138 2.75 2.131 2.75 2.123 2.75 2.115 2.748 2.107 2.746 2.099 2.743 2.092" class="fil1"/><polygon id="_454601344" points="2.71 2.195 6.496 5.981 6.489 5.985 6.481 5.988 6.473 5.99 6.465 5.991 6.458 5.992 6.45 5.992 6.442 5.991 6.435 5.989 6.427 5.987 6.42 5.984 6.413 5.98 6.407 5.975 6.401 5.97 2.614 2.184 2.62 2.189 2.627 2.194 2.634 2.197 2.641 2.2 2.648 2.203 2.656 2.204 2.664 2.205 2.671 2.206 2.679 2.205 2.687 2.204 2.695 2.201 2.702 2.199" class="fil1"/><polygon id="_454601104" points="2.581 1.813 6.367 5.6 6.372 5.606 6.377 5.613 2.591 1.827 2.586 1.82" class="fil1"/><polygon id="_454601392" points="2.591 1.827 6.377 5.613 6.526 5.871 2.739 2.084" class="fil1"/><polygon id="_454600984" points="4.314 2.595 8.101 6.381 8.139 6.425 8.175 6.471 8.209 6.519 8.241 6.568 8.27 6.619 8.297 6.672 8.321 6.726 8.343 6.781 8.362 6.838 8.379 6.895 8.392 6.954 8.403 7.014 8.411 7.075 8.415 7.137 8.417 7.2 8.415 7.262 8.411 7.324 8.403 7.385 8.392 7.445 8.379 7.504 8.362 7.562 8.343 7.618 8.321 7.673 8.297 7.727 8.27 7.78 8.241 7.831 8.209 7.88 8.175 7.928 8.139 7.974 8.101 8.018 8.06 8.06 8.018 8.101 7.974 8.139 7.928 8.175 7.88 8.209 7.831 8.241 7.78 8.27 7.727 8.297 7.673 8.321 7.618 8.343 7.562 8.362 7.504 8.379 7.445 8.392 7.385 8.403 7.324 8.411 7.262 8.415 7.2 8.417 7.199 8.417 7.199 8.417 7.199 8.417 7.199 8.417 7.198 8.417 7.198 8.417 7.198 8.417 7.197 8.417 3.411 4.631 3.411 4.631 3.412 4.631 3.412 4.631 3.412 4.631 3.413 4.631 3.413 4.631 3.413 4.631 3.413 4.631 3.476 4.629 3.538 4.624 3.599 4.617 3.659 4.606 3.718 4.592 3.775 4.576 3.832 4.557 3.887 4.535 3.941 4.511 3.994 4.484 4.045 4.454 4.094 4.423 4.142 4.389 4.188 4.353 4.232 4.314 4.274 4.274 4.314 4.232 4.353 4.188 4.389 4.142 4.423 4.094 4.454 4.045 4.484 3.994 4.511 3.941 4.535 3.887 4.557 3.832 4.576 3.775 4.592 3.718 4.606 3.659 4.617 3.599 4.624 3.538 4.629 3.476 4.631 3.413 4.629 3.351 4.624 3.289 4.617 3.228 4.606 3.168 4.592 3.109 4.576 3.051 4.557 2.995 4.535 2.939 4.511 2.886 4.484 2.833 4.454 2.782 4.423 2.733 4.389 2.685 4.353 2.639" class="fil1"/><polygon id="_454600792" points="4.376 4.919 8.162 8.706 8.166 8.713 8.169 8.721 8.171 8.728 8.173 8.736 8.173 8.744 8.173 8.752 8.172 8.759 8.17 8.767 8.168 8.774 8.165 8.781 8.161 8.788 8.157 8.795 8.152 8.801 8.146 8.806 8.14 8.811 8.133 8.816 4.346 5.03 4.353 5.025 4.36 5.02 4.365 5.015 4.37 5.009 4.375 5.002 4.379 4.995 4.382 4.988 4.384 4.981 4.386 4.973 4.387 4.965 4.387 4.958 4.386 4.95 4.385 4.942 4.383 4.934 4.38 4.927" class="fil1"/><polygon id="_454600720" points="4.346 5.03 8.133 8.816 8.125 8.82 8.118 8.823 8.11 8.825 8.102 8.826 8.094 8.827 8.087 8.826 8.079 8.826 8.071 8.824 8.064 8.822 8.057 8.818 8.05 8.815 8.043 8.81 8.037 8.805 4.251 5.019 4.257 5.024 4.264 5.028 4.271 5.032 4.278 5.035 4.285 5.038 4.293 5.039 4.3 5.04 4.308 5.04 4.316 5.04 4.324 5.039 4.331 5.036 4.339 5.033" class="fil1"/><polygon id="_454601032" points="4.212 4.643 7.998 8.429 8.004 8.435 8.009 8.441 8.014 8.448 4.227 4.662 4.223 4.655 4.218 4.648" class="fil1"/><polygon id="_454601152" points="2.18 4.098 5.966 7.884 5.972 7.89 5.977 7.896 5.981 7.903 2.195 4.117 2.19 4.11 2.185 4.104" class="fil1"/><polygon id="_454600936" points="2.195 4.117 5.981 7.903 5.985 7.911 5.988 7.918 5.99 7.926 5.991 7.934 5.992 7.942 5.992 7.949 5.991 7.957 5.989 7.965 5.987 7.972 5.984 7.979 5.98 7.986 5.975 7.992 5.97 7.998 5.965 8.004 5.958 8.009 5.951 8.014 2.165 4.227 2.172 4.223 2.178 4.218 2.184 4.212 2.189 4.206 2.194 4.2 2.197 4.193 2.2 4.186 2.203 4.178 2.204 4.171 2.205 4.163 2.206 4.155 2.205 4.147 2.204 4.14 2.201 4.132 2.199 4.124" class="fil1"/><polygon id="_454601920" points="2.165 4.227 5.951 8.014 5.694 8.162 1.907 4.376" class="fil1"/><polygon id="_454601944" points="1.907 4.376 5.694 8.162 5.686 8.166 5.679 8.169 5.671 8.171 5.663 8.173 5.655 8.173 5.648 8.173 5.64 8.172 5.632 8.17 5.625 8.168 5.618 8.165 5.611 8.161 5.604 8.157 5.598 8.152 1.812 4.365 1.818 4.37 1.825 4.375 1.831 4.379 1.839 4.382 1.846 4.384 1.854 4.386 1.861 4.387 1.869 4.387 1.877 4.386 1.885 4.385 1.892 4.383 1.9 4.38" class="fil1"/><polygon id="_454601608" points="2.723 4.641 6.509 8.428 6.515 8.433 6.52 8.439 6.524 8.446 6.528 8.453 6.531 8.46 6.534 8.467 6.535 8.475 6.536 8.482 6.536 8.49 6.536 8.498 6.535 8.506 6.532 8.514 6.529 8.521 6.526 8.528 2.739 4.742 2.743 4.735 2.746 4.727 2.748 4.72 2.75 4.712 2.75 4.704 2.75 4.696 2.749 4.688 2.747 4.681 2.745 4.673 2.742 4.666 2.738 4.659 2.734 4.653 2.729 4.647" class="fil1"/><polygon id="_454601824" points="2.739 4.742 6.526 8.528 6.377 8.786 2.591 5" class="fil1"/><polygon id="_454602136" points="2.591 5 6.377 8.786 6.372 8.793 6.367 8.799 6.362 8.805 6.356 8.81 6.349 8.815 6.342 8.818 6.335 8.822 6.328 8.824 6.32 8.826 6.313 8.826 6.305 8.827 6.297 8.826 6.289 8.825 6.282 8.823 6.274 8.82 6.267 8.816 2.48 5.03 2.488 5.033 2.495 5.036 2.503 5.039 2.511 5.04 2.519 5.04 2.526 5.04 2.534 5.039 2.542 5.038 2.549 5.035 2.556 5.032 2.563 5.028 2.569 5.024 2.576 5.019 2.581 5.013 2.586 5.007" class="fil1"/><polygon id="_454602160" points="2.48 5.03 6.267 8.816 6.26 8.811 6.253 8.806 2.467 5.02 2.473 5.025" class="fil1"/><polygon id="_454601632" points="5.28 3.413 9.066 7.2 9.066 7.208 9.065 7.216 9.063 7.224 9.06 7.231 9.056 7.238 9.052 7.245 9.048 7.251 9.042 7.257 9.037 7.262 9.03 7.267 9.024 7.271 9.017 7.274 9.009 7.277 9.001 7.279 8.993 7.28 8.985 7.281 5.199 3.494 5.207 3.494 5.215 3.493 5.223 3.491 5.23 3.488 5.238 3.485 5.244 3.481 5.25 3.476 5.256 3.471 5.261 3.465 5.266 3.459 5.27 3.452 5.274 3.445 5.276 3.437 5.278 3.43 5.28 3.422" class="fil1"/><polygon id="_454601464" points="5.199 3.494 8.985 7.281 8.688 7.281 4.901 3.494" class="fil1"/><polygon id="_454601896" points="4.901 3.494 8.688 7.281 8.679 7.28 8.671 7.279 8.663 7.277 8.656 7.274 8.649 7.271 8.642 7.267 8.636 7.262 8.63 7.257 4.844 3.471 4.85 3.476 4.856 3.481 4.863 3.485 4.87 3.488 4.877 3.491 4.885 3.493 4.893 3.494" class="fil1"/><polygon id="_454601656" points="5.019 4.251 8.805 8.037 8.81 8.043 8.815 8.05 8.818 8.057 8.822 8.064 8.824 8.071 8.826 8.079 8.826 8.087 8.827 8.094 8.826 8.102 8.825 8.11 8.823 8.118 8.82 8.125 8.816 8.133 5.03 4.346 5.033 4.339 5.036 4.331 5.039 4.324 5.04 4.316 5.04 4.308 5.04 4.3 5.039 4.293 5.038 4.285 5.035 4.278 5.032 4.271 5.028 4.264 5.024 4.257" class="fil1"/><polygon id="_454601752" points="5.03 4.346 8.816 8.133 8.811 8.14 8.806 8.146 8.801 8.152 8.795 8.157 8.788 8.161 8.781 8.165 8.774 8.168 8.767 8.17 8.759 8.172 8.752 8.173 8.744 8.173 8.736 8.173 8.728 8.171 8.721 8.169 8.713 8.166 8.706 8.162 4.919 4.376 4.927 4.38 4.934 4.383 4.942 4.385 4.95 4.386 4.958 4.387 4.965 4.387 4.973 4.386 4.981 4.384 4.988 4.382 4.995 4.379 5.002 4.375 5.009 4.37 5.015 4.365 5.02 4.36 5.025 4.353" class="fil1"/><polygon id="_454602328" points="4.919 4.376 8.706 8.162 8.448 8.014 4.662 4.227" class="fil1"/><polygon id="_454602832" points="4.662 4.227 8.448 8.014 8.441 8.009 8.435 8.004 8.429 7.998 4.643 4.212 4.648 4.218 4.655 4.223" class="fil1"/><polygon id="_454602568" points="4.227 4.662 8.014 8.448 8.162 8.706 4.376 4.919" class="fil1"/><polygon id="_454602688" points="3.471 4.844 7.257 8.63 7.262 8.636 7.267 8.642 7.271 8.649 7.274 8.656 7.277 8.663 7.279 8.671 7.28 8.679 7.281 8.688 3.494 4.901 3.494 4.893 3.493 4.885 3.491 4.877 3.488 4.87 3.485 4.863 3.481 4.856 3.476 4.85" class="fil1"/><polygon id="_454602472" points="3.494 4.901 7.281 8.688 7.281 8.985 3.494 5.199" class="fil1"/><polygon id="_454602712" points="3.413 5.28 7.2 9.066 7.191 9.066 7.183 9.065 7.175 9.063 7.168 9.06 7.161 9.056 7.154 9.052 7.148 9.048 3.362 5.261 3.368 5.266 3.375 5.27 3.382 5.274 3.389 5.276 3.397 5.278 3.405 5.28" class="fil1"/><polygon id="_454602736" points="3.494 5.199 7.281 8.985 7.28 8.993 7.279 9.001 7.277 9.009 7.274 9.017 7.271 9.024 7.267 9.03 7.262 9.037 7.257 9.043 7.251 9.048 7.245 9.052 7.238 9.056 7.231 9.06 7.224 9.063 7.216 9.065 7.208 9.066 7.2 9.066 3.413 5.28 3.422 5.28 3.43 5.278 3.437 5.276 3.445 5.274 3.452 5.27 3.459 5.266 3.465 5.261 3.471 5.256 3.476 5.25 3.481 5.244 3.485 5.238 3.488 5.23 3.491 5.223 3.493 5.215 3.494 5.207" class="fil1"/></g><path id="_457169576" d="M3.41333 1.54666c0.0448228,0 0.0811614,0.0363386 0.0811614,0.0811614l0 0.297583c0,0.0448228 -0.0363386,0.0811614 -0.0811614,0.0811614 -0.0448228,0 -0.0811614,-0.0363386 -0.0811614,-0.0811614l0 -0.297583c0,-0.0448228 0.0363386,-0.0811614 0.0811614,-0.0811614zm0 0.649276c0.67235,0 1.21739,0.545047 1.21739,1.21739 0,0.672346 -0.545043,1.21739 -1.21739,1.21739 -0.000716535,0 -0.00143307,0 -0.00214961,0 -0.671358,-0.00116142 -1.21524,-0.545764 -1.21524,-1.21739 0,-0.67163 0.543886,-1.21623 1.21524,-1.21739 0.000716535,0 0.00143307,0 0.00214961,0zm0 2.62415c0.0448228,0 0.0811614,0.0363386 0.0811614,0.0811614l0 0.297583c0,0.0448228 -0.0363386,0.0811614 -0.0811614,0.0811614 -0.0448228,0 -0.0811614,-0.0363386 -0.0811614,-0.0811614l0 -0.297583c0,-0.0448228 0.0363386,-0.0811614 0.0811614,-0.0811614zm0.93302 -3.02312c0.0386929,0.0222362 0.0520354,0.0716339 0.0297992,0.110327l-0.148791 0.257717c-0.0222362,0.0386929 -0.0716339,0.0520354 -0.110327,0.0297992 -0.0386929,-0.0222362 -0.0520354,-0.0716339 -0.0297992,-0.110327l0.148791 -0.257717c0.0222362,-0.0386929 0.0716299,-0.0520354 0.110327,-0.0297992zm0.683339 0.683343c0.0222362,0.0386929 0.0088937,0.0880906 -0.0297992,0.110327l-0.257717 0.148791c-0.0386929,0.0222362 -0.0880906,0.0088937 -0.110327,-0.0297992 -0.0222362,-0.0386969 -0.0088937,-0.0880906 0.0298031,-0.110327l0.257713 -0.148791c0.0386929,-0.0222362 0.0880906,-0.0088937 0.110327,0.0297992zm0.16915 0.851854c0.0448228,0 0.0811614,0.0363386 0.0811614,0.0811614 0,0.0448228 -0.0363386,0.0811614 -0.0811614,0.0811614l-0.297583 0c-0.0448228,0 -0.0811614,-0.0363386 -0.0811614,-0.0811614 0,-0.0448228 0.0363386,-0.0811614 0.0811614,-0.0811614l0.297583 0zm-0.198949 0.90385c0.0386929,0.0222362 0.0520354,0.0716339 0.0297992,0.110327 -0.0222362,0.0386929 -0.0716339,0.0520354 -0.110327,0.0297992l-0.257713 -0.148791c-0.0386969,-0.0222362 -0.0520394,-0.0716299 -0.0298031,-0.110327 0.0222362,-0.0386929 0.0716339,-0.0520354 0.110327,-0.0297992l0.257717 0.148791zm-0.772531 0.425626l0.148791 0.257713c0.0222362,0.0386929 0.0088937,0.0880906 -0.0297992,0.110327 -0.0386929,0.0222362 -0.0880906,0.0088937 -0.110327,-0.0297992l-0.148791 -0.257717c-0.0222362,-0.0386929 -0.0088937,-0.0880906 0.0297992,-0.110327 0.0386969,-0.0222362 0.0880906,-0.0088937 0.110327,0.0298031zm-1.51772 -0.0298031c0.0386929,0.0222362 0.0520354,0.0716339 0.0297992,0.110327l-0.148791 0.257717c-0.0222362,0.0386929 -0.0716339,0.0520354 -0.110327,0.0297992 -0.0386929,-0.0222362 -0.0520354,-0.0716339 -0.0297992,-0.110327l0.148791 -0.257713c0.0222362,-0.0386969 0.0716299,-0.0520394 0.110327,-0.0298031zm-0.625146 -0.544614c0.0386929,-0.0222362 0.0880906,-0.0088937 0.110327,0.0297992 0.0222362,0.0386969 0.0088937,0.0880906 -0.0297992,0.110327l-0.257717 0.148791c-0.0386929,0.0222362 -0.0880906,0.0088937 -0.110327,-0.0297992 -0.0222362,-0.0386929 -0.0088937,-0.0880906 0.0297992,-0.110327l0.257717 -0.148791zm0.110327 -1.37759c-0.0222362,0.0386929 -0.0716339,0.0520354 -0.110327,0.0297992l-0.257717 -0.148791c-0.0386929,-0.0222362 -0.0520354,-0.0716339 -0.0297992,-0.110327 0.0222362,-0.0386929 0.0716339,-0.0520354 0.110327,-0.0297992l0.257717 0.148791c0.0386929,0.0222362 0.0520354,0.0716299 0.0297992,0.110327zm0.544618 -0.625146c0.0222362,0.0386929 0.0088937,0.0880906 -0.0297992,0.110327 -0.0386969,0.0222362 -0.0880906,0.0088937 -0.110327,-0.0297992l-0.148791 -0.257717c-0.0222362,-0.0386929 -0.0088937,-0.0880906 0.0297992,-0.110327 0.0386929,-0.0222362 0.0880906,-0.0088937 0.110327,0.0297992l0.148791 0.257717zm-0.732866 1.32884c0,0.0448228 -0.0363386,0.0811614 -0.0811614,0.0811614l-0.297583 0c-0.0448228,0 -0.0811614,-0.0363386 -0.0811614,-0.0811614 0,-0.0448228 0.0363386,-0.0811614 0.0811614,-0.0811614l0.297583 0c0.0448228,0 0.0811614,0.0363386 0.0811614,0.0811614z" class="fil1"/></g></g><path d="M3.41333 -3.93701e-006c1.88513,0 3.41333,1.5282 3.41333,3.41333 0,1.88513 -1.5282,3.41333 -3.41333,3.41333 -1.88513,0 -3.41333,-1.5282 -3.41333,-3.41333 0,-1.88513 1.5282,-3.41333 3.41333,-3.41333z" class="fil2"/><path d="M3.49449 1.62782c0,-0.0448228 -0.0363386,-0.0811614 -0.0811614,-0.0811614 -0.0448228,0 -0.0811614,0.0363386 -0.0811614,0.0811614l0 0.297583c0,0.0448228 0.0363386,0.0811614 0.0811614,0.0811614 0.0448228,0 0.0811614,-0.0363386 0.0811614,-0.0811614l0 -0.297583z" class="fil3"/><path d="M3.49449 4.90125c0,-0.0448228 -0.0363386,-0.0811614 -0.0811614,-0.0811614 -0.0448228,0 -0.0811614,0.0363386 -0.0811614,0.0811614l0 0.297583c0,0.0448228 0.0363386,0.0811614 0.0811614,0.0811614 0.0448228,0 0.0811614,-0.0363386 0.0811614,-0.0811614l0 -0.297583z" class="fil3"/><circle cx="3.413" cy="3.413" r="1.217" class="fil4"/><path d="M3.41118 4.6307c-0.671354,-0.00116142 -1.21524,-0.545736 -1.21524,-1.21737 0,-0.67163 0.54389,-1.2162 1.21524,-1.21737l0 2.43473z" class="fil5"/><path d="M4.37615 1.9073c0.0222362,-0.0386929 0.0088937,-0.0880906 -0.0297992,-0.110327 -0.0386969,-0.0222362 -0.0880906,-0.0088937 -0.110327,0.0297992l-0.148791 0.257717c-0.0222362,0.0386929 -0.0088937,0.0880906 0.0297992,0.110327 0.0386929,0.0222362 0.0880906,0.0088937 0.110327,-0.0297992l0.148791 -0.257717z" class="fil3"/><path d="M2.73943 4.74217c0.0222362,-0.0386929 0.0088937,-0.0880906 -0.0297992,-0.110327 -0.0386969,-0.0222362 -0.0880906,-0.0088937 -0.110327,0.0298031l-0.148791 0.257713c-0.0222362,0.0386929 -0.0088937,0.0880906 0.0297992,0.110327 0.0386929,0.0222362 0.0880906,0.0088937 0.110327,-0.0297992l0.148791 -0.257717z" class="fil3"/><path d="M4.99989 2.59064c0.0386929,-0.0222362 0.0520354,-0.0716339 0.0297992,-0.110327 -0.0222362,-0.0386929 -0.0716339,-0.0520354 -0.110327,-0.0297992l-0.257713 0.148791c-0.0386969,0.0222362 -0.0520394,0.0716299 -0.0298031,0.110327 0.0222362,0.0386929 0.0716339,0.0520354 0.110327,0.0297992l0.257717 -0.148791z" class="fil3"/><path d="M2.16502 4.22735c0.0386929,-0.0222362 0.0520354,-0.0716299 0.0297992,-0.110327 -0.0222362,-0.0386929 -0.0716339,-0.0520354 -0.110327,-0.0297992l-0.257717 0.148791c-0.0386929,0.0222362 -0.0520354,0.0716339 -0.0297992,0.110327 0.0222362,0.0386929 0.0716339,0.0520354 0.110327,0.0297992l0.257717 -0.148791z" class="fil3"/><path d="M5.19883 3.49449c0.0448228,0 0.0811614,-0.0363386 0.0811614,-0.0811614 0,-0.0448228 -0.0363386,-0.0811614 -0.0811614,-0.0811614l-0.297583 0c-0.0448228,0 -0.0811614,0.0363386 -0.0811614,0.0811614 0,0.0448228 0.0363386,0.0811614 0.0811614,0.0811614l0.297583 0z" class="fil3"/><path d="M1.92541 3.49449c0.0448228,0 0.0811614,-0.0363386 0.0811614,-0.0811614 0,-0.0448228 -0.0363386,-0.0811614 -0.0811614,-0.0811614l-0.297583 0c-0.0448228,0 -0.0811614,0.0363386 -0.0811614,0.0811614 0,0.0448228 0.0363386,0.0811614 0.0811614,0.0811614l0.297583 0z" class="fil3"/><path d="M4.91936 4.37615c0.0386929,0.0222362 0.0880906,0.0088937 0.110327,-0.0297992 0.0222362,-0.0386929 0.0088937,-0.0880906 -0.0297992,-0.110327l-0.257717 -0.148791c-0.0386929,-0.0222362 -0.0880906,-0.0088937 -0.110327,0.0297992 -0.0222362,0.0386969 -0.0088937,0.0880906 0.0298031,0.110327l0.257713 0.148791z" class="fil3"/><path d="M2.08449 2.73943c0.0386929,0.0222362 0.0880906,0.0088937 0.110327,-0.0297992 0.0222362,-0.0386969 0.0088937,-0.0880906 -0.0297992,-0.110327l-0.257717 -0.148791c-0.0386929,-0.0222362 -0.0880906,-0.0088937 -0.110327,0.0297992 -0.0222362,0.0386929 -0.0088937,0.0880906 0.0297992,0.110327l0.257717 0.148791z" class="fil3"/><path d="M4.23602 4.99989c0.0222362,0.0386929 0.0716339,0.0520354 0.110327,0.0297992 0.0386929,-0.0222362 0.0520354,-0.0716339 0.0297992,-0.110327l-0.148791 -0.257713c-0.0222362,-0.0386969 -0.0716299,-0.0520394 -0.110327,-0.0298031 -0.0386929,0.0222362 -0.0520354,0.0716339 -0.0297992,0.110327l0.148791 0.257717z" class="fil3"/><path d="M2.59931 2.16502c0.0222362,0.0386929 0.0716299,0.0520354 0.110327,0.0297992 0.0386929,-0.0222362 0.0520354,-0.0716339 0.0297992,-0.110327l-0.148791 -0.257717c-0.0222362,-0.0386929 -0.0716339,-0.0520354 -0.110327,-0.0297992 -0.0386929,0.0222362 -0.0520354,0.0716339 -0.0297992,0.110327l0.148791 0.257717z" class="fil3"/></g></svg>